/* XPM */
static char *_7dd7ac83f734444e40777387d590d450y5uDDfE7HEvVHgj[] = {
/* columns rows colors chars-per-pixel */
"64 64 251 2 ",
"   c #030100",
".  c #0A0102",
"X  c #030A02",
"o  c #0C0B03",
"O  c #0D0B0B",
"+  c #080609",
"@  c #160200",
"#  c #1C0300",
"$  c #140C01",
"%  c #1C0C00",
"&  c #130C0B",
"*  c #190C0A",
"=  c #0C1204",
"-  c #0B120C",
";  c #071505",
":  c #141400",
">  c #1B1300",
",  c #141B00",
"<  c #1B1B00",
"1  c #15150C",
"2  c #0D0D12",
"3  c #140D12",
"4  c #100611",
"5  c #0B1313",
"6  c #141312",
"7  c #161D14",
"8  c #1B1C15",
"9  c #1B1B1B",
"0  c #191618",
"q  c #230300",
"w  c #2A0400",
"e  c #230B01",
"r  c #2B0C01",
"t  c #2A0F08",
"y  c #320400",
"u  c #340B00",
"i  c #3A0D00",
"p  c #3B0500",
"a  c #241401",
"s  c #2B1302",
"d  c #231D00",
"f  c #2A1A02",
"g  c #28170A",
"h  c #331705",
"j  c #231818",
"k  c #1B2300",
"l  c #1A2400",
"z  c #1A2115",
"x  c #242400",
"c  c #272800",
"v  c #21221A",
"b  c #1C1C23",
"n  c #211D22",
"m  c #242422",
"M  c #1C2124",
"N  c #BB3A0C",
"B  c #C53D01",
"V  c #CB3D02",
"C  c #CA3D08",
"Z  c #D23D06",
"A  c #BC4318",
"S  c #B74C2B",
"D  c #CB4203",
"F  c #CC4209",
"G  c #C54204",
"H  c #C24917",
"J  c #D14201",
"K  c #C34622",
"L  c #F98E3C",
"P  c #F3953E",
"I  c #FB943E",
"U  c #FD9B3D",
"Y  c #F5993C",
"T  c #EDBA2B",
"R  c #F3BA2C",
"E  c #F4B72A",
"W  c #FEAB3D",
"Q  c #F8A93A",
"!  c #EEB933",
"~  c #F9BC3B",
"^  c #F6B838",
"/  c #EDC61E",
"(  c #F9EE19",
")  c #F3F41C",
"_  c #FCF21B",
"`  c #FCFC1D",
"'  c #F5FA1A",
"]  c #EFF914",
"[  c #EBC323",
"{  c #EED431",
"}  c #DEEA34",
"|  c #DDE536",
" . c #DDE02D",
".. c #E7EA2B",
"X. c #FFEE26",
"o. c #FFF325",
"O. c #FDFA22",
"+. c #FEF32A",
"@. c #F6FA28",
"#. c #E5E634",
"$. c #ECE434",
"%. c #E3EA34",
"&. c #EAEA34",
"*. c #E4E63B",
"=. c #E8E83C",
"-. c #FFEA3B",
";. c #FBE736",
":. c #E9F334",
">. c #FEF334",
",. c #F9F83A",
"<. c #BE865B",
"1. c #BF925B",
"2. c #BB8968",
"3. c #B8A360",
"4. c #D68C4B",
"5. c #DB8B4D",
"6. c #D6864A",
"7. c #DB924B",
"8. c #C5895B",
"9. c #D58D52",
"0. c #DB8C54",
"q. c #DC8C5A",
"w. c #D88856",
"e. c #DB9254",
"r. c #CD9155",
"t. c #E08D4B",
"y. c #E2944B",
"u. c #F49543",
"i. c #FB9443",
"p. c #F59944",
"a. c #FE9C44",
"s. c #F5964C",
"d. c #FB954B",
"f. c #FE9D4B",
"g. c #F5994A",
"h. c #E28D54",
"j. c #E68C58",
"k. c #E39353",
"l. c #E3935B",
"z. c #FF9D51",
"x. c #FD9551",
"c. c #FC8D49",
"v. c #DCAB4A",
"b. c #DAB14E",
"n. c #DDA658",
"m. c #D5B452",
"M. c #FFA445",
"N. c #F5AC43",
"B. c #FDAC45",
"V. c #FEA34B",
"C. c #F5AB4B",
"Z. c #FEAC4B",
"A. c #F6A549",
"S. c #EBBA45",
"D. c #FCB144",
"F. c #FDB14B",
"G. c #F8B846",
"H. c #EBAB5C",
"J. c #E5A759",
"K. c #FDA452",
"L. c #F5AC55",
"P. c #FEAC52",
"I. c #FCAA5A",
"U. c #EAB759",
"Y. c #FFB252",
"T. c #F7B658",
"R. c #E0A74E",
"E. c #C58B62",
"W. c #C58663",
"Q. c #C79B66",
"!. c #CF906A",
"~. c #CAA269",
"^. c #D3A56B",
"/. c #E5A962",
"(. c #FAA863",
"). c #EDB563",
"_. c #E9BB6A",
"`. c #F6B664",
"'. c #EBB878",
"]. c #F0B476",
"[. c #D6D756",
"{. c #D2D651",
"}. c #EAC147",
"|. c #ECDC47",
" X c #F5CE4B",
".X c #EBE647",
"XX c #F6F943",
"oX c #F7ED51",
"OX c #F5EE66",
"+X c #EEC374",
"@X c #FCFD8E",
"#X c #FFFC97",
"$X c #FFE699",
"%X c #FFDCB9",
"&X c #FFDCAE",
"*X c #FFECAC",
"=X c #FFF7A9",
"-X c #FFEBB4",
";X c #FFECB9",
":X c #FEE6B7",
">X c #FFFDB5",
",X c #FCF9B8",
"<X c #D5D7BF",
"1X c #DADBCB",
"2X c #D8D8C9",
"3X c #DDDBD3",
"4X c #DDDDDB",
"5X c #DAD6D5",
"6X c #E2D7CA",
"7X c #E3DAD8",
"8X c #FFDCC3",
"9X c #DDE3D9",
"0X c #DCE1CA",
"qX c #FFEBC8",
"wX c #FFF7CB",
"eX c #E7E6DC",
"rX c #FFF2D4",
"tX c #FFF8D5",
"yX c #F8E8D6",
"uX c #E4DBE2",
"iX c #DDE8E4",
"pX c #E4E5E2",
"aX c #EAE6E4",
"sX c #E4EAE4",
"dX c #EBEBE5",
"fX c #E4EBE9",
"gX c #EBEBEB",
"hX c #E7E5EA",
"jX c #F2ECE8",
"kX c #E6F3EC",
"lX c #ECF2EC",
"zX c #ECF5E7",
"xX c #F3F4ED",
"cX c #F4FAED",
"vX c #F8FAEE",
"bX c #F7F6EA",
"nX c #ECECF2",
"mX c #E9E7F2",
"MX c #F3EEF3",
"NX c #EDF3F3",
"BX c #EEFAF3",
"VX c #EEFBFA",
"CX c #EEF5FB",
"ZX c #F5F6F4",
"AX c #F9F6F4",
"SX c #F5F9F3",
"DX c #FBFBF4",
"FX c #F5F6FA",
"GX c #FAF5FB",
"HX c #F4FBFB",
"JX c #FBFCFC",
/* pixels */
"GXFXvXcXBXSXSXvXSXSXCXVXSXzXHXHXHXsX6 . . .     X     - hXJXAXAXAXAXAXMXJXiX; X           + X 3 nXHXFXFXNXSXSXSXDXAXHXVXVXSXAXAX",
"GXGXcXcXSXSXcXSXZXJXHXHXBXSXZXSXkX2Xk : a a : : % % > g 5XnXZXAXAXAXAXAXgX1Xl , > > , , $ $ % f 5XNXxXDXSXBXkXSXDXSXSXHXHXFXDXAX",
"GXGXSXSXSXSXSXAXHXCXFXCXcXcXvXdX1 k {.=.&...&.|.m.n.J.Q.a b dXJXJXNXJXsX9 < [.$.$.$.&.|.b.J.n.~.e g dXDXZXSXGXGXSXcXSXBXSXAXxXvX",
"GXGXFXSXSXHXAXAXFXFXFXHXcXcXyX0Xx l :.O._ o.o.-.S.F.F.H.r > 2XfXNXFXsX1X, c &.` _ X.o.;.G.D.F.J.u s 6XjXlXGXAXGXAXcXBXcXAXAXSXcX",
"FXFXFXSXFXSXFXAXDXcXSXBXHXgXb a {.&.] ) / E R ~ Q F.P.L.H.Q.f 8 BXkXM l [...` ( / E R ^ F.N.F.C.n.^.e j FXJXvXbXcXSXBXSXAXAXAXSX",
"AXDXSXFXSXFXFXAXxXvXcXxXlX1Xd x &.@.,.oX! D.D.N.B.B.F.L.F.J.u e 0X0X; l ..` >.oX~ D.Q D.Y.C.F.F.T.n.u a 2XdXAXAXSXSXBXBXAXGXFXSX",
"SXSXFXSXSXSXFXAXDXxXJXkX9 , [.%.@.,.#X=XU.G.B.Z.F.M.Z.Z.B.Z.y.8.a c [.} ' @.@X=XU.Z.G.C.Y.Z.B.W B.L.r.2.a m dXAXAXSXSXSXFXFXHXHX",
"AXSXSXSXSXFXFXDXFXDXHXpX: , } @.,.OX>X-X`.N.Z.Z.Z.Z.Z.B.B.W P e.# : *.@.:.OX=X:X(.f.Z.B.Z.Z.D.W B.Z.L.E.@ O hXJXAXDXDXSXSXFXFXHX",
"FXSXSXcXDXFXFXGXFXAXHXsXo , %.,.@X=X_.U.F.B.B.Y.Z.D.D.D.B.M.d.r.# > $.>.#X=X_.(.G G V.F.B.D.D.B.B.Z.g.9.# O fXHXFXAXvXvXAXSXSXcX",
"SXFXSXSXSXSXGXFXZXHXHXdX$ : } XX>XqXU.G.W Z.a.f.Z.D.D.W D.Z.d.w.# : ;.XX>XwX_.V.C F a.Z.B.B.B.F.Z.M.I 5.q 6 fXHXZXAXAXAXAXSXcXBX",
"SXSXSXSXcXDXSXAXFXFXHXsXo : } ,.,XrX_.C.D.M.D V a.B.B.D.Z.Z.g.q.q > $.>.>X,XU.B.V.d.P.M.Z.Z.M.F.B.M.U t.q O sXHXBXFXAXGXAXSXcXBX",
"cXDXFXFXvXcXAXAXHXHXHXsXo : } ,.#X-X`.Z.D.M.V Z a.W D.D.C.Z.g.0.@ > =.,.@X*XU.D.Z.Z.Z.V.V.f.Z.Z.B.B.I t.q & dXFXBXZXFXAXGXSXSXSX",
"FXFXFXSXSXcXAXFXFXHXHXsXo > *.>.}.I.Z.B.N.Z.f.f.B.W D.D.C.B.p.5.q $ #.+.S.U.C.F.Z.M.P.a.V V f.P.F.M.Y 6.q 3 gXJXSXBXSXGXGXGXHXHX",
"GXFXHXSXAXAXFXAXCXHXHXsXo : .X>.^ Z.Z.F.B.B.P.Z.B.B.D.B.Z.M.p.e.# > .X-.^ F.C.Z.Z.M.F.V.D V f.Z.Z.Z.Y t.# 2 hXJXSXcXSXSXGXGXFXFX",
"SXAXSXSXFXDXvXSXFXHXHXfX6 a *.+.T B.Z.N.F.F.Z.Z.Z.Z.B.W B.Z.d.0.@ > v.~ C.P.C.F.Z.B.N.Z.M.a.Y.N.N.P.i.w.q 3 aXDXZXBXcXSXGXFXFXcX",
"SXSXSXFXAXFXAXcXcXBXSXgX9 d [.$.^ N.Z.F.Z.D.B.B.Z.Z.B.D.Z.K.l.E.f d v.G.B.P.Z.Z.B.Z.Z.B.F.Z.B.Z.Z.L.q.W.t n dXDXxXcXcXcXFXAXDXSX",
"BXBXJXAXGXGXSXBXBXSXDXAXgX2X> h R.F.N.Z.B.Z.B.B.Z.V.Z.M.a.k.u % 2X;XoX-.~ F.C.F.B.B.Z.Z.P.Y.N.Z.p.7.u * uXmXFXAXSXcXcXcXDXAXSXBX",
"BXSXAXGXGXFXSXSXZXAXAXAXJXMX8 a ~.H.K.P.Z.M.M.M.K.P.P.K.t.E.e j zXtXOXoXm.n.L.Z.W M.M.M.V.P.Z.A.y.8.% M nXHXJXAXAXAXSXSXvXSXHXBX",
"cXcXNXHXSXSXSXxXGXAXSXxXFXFXgX3X> r e.s.u.Y a.I Y Y d.5.u e 6XjXzXbXwX:Xa u q.s.Y Y i.a.p.u.a.7.p e 7XMXVXBXAXAXZXFXNXFXZXAXAXGX",
"SXAXJXNXSXcXzXJXAXAXAXDXGXFXHXkXz g 2.l.w.0.4.4.e.9.0.E.a 9 jXAXSXxXGXeX0 e !.!.9.4.5.e.5.4.0.8.s j gXJXNXcXDXbXHXFXHXFXDXAXJXGX",
"GXGXFXJXSXbXJXDXGXJXJXFXJXJXSXHXdX2Xg # q # q q @ @ @ g 5XVXZXJXHXHXcXDXjX6Xg @ # # q q q q # s 6XaXbXvXDXDXbXJXHXJXHXFXSXSXZXHX",
"GXGXZXGXxXAXdXpXgXpXaXaXnXuXlX9XJXgXj O 6 6 & o 1 O o 9 5XNXfXpXgXfXkXeXdX3Xj O 5 2 * * & & o 9 xXAXzX9XlXdXeXeXfXiXsXzXxXSXFXFX",
"vXAXGXZXJXdXz X ; ; ; = + 6 o v jXGXjXgX9XeXeXyXpXgXkX7X9 + & $ o   - O o z 0XzXiXsXaXaXgXsXsXiXAXdX8 O   O $ & 5 5 X 1 zXDXAXGX",
"bXAXxXFXMX1Xk = ; ; , o % % @ r 6XjXFXJXHXDXDXDXJXJXjX0X< $ > : : > @ % $ > 9XkXBXHXGXGXSXJXHXVXkX1Xx o , : > % o o $ f 1XgXxXDX",
"vXDXVXkX8 , [.&.%.} &.|.v.J./.^.s 0 gXJXBXlXFXZXJXdX1 d {.=.*.} *.|.b.n.J.^.% 8 sXJXSXZXAXAXHXNX9 , [.=.*.=.$.|.m./.n.Q.g b gXDX",
"DXlXkX2Xk x &.` O.o.o.-.~ Z.`./.u a 1XlXNXFXJXSXkX2Xf c ..` O.>.>.-.~ N.Z.J.u > 6XgXNXSXAXxXiX2X, x &.+._ o.>.;.~ N.Y.L.s a 3XgX",
"DXzX7 k [.&.] ( [ R [ ~ Q F.Z.C.n.~.> 8 mXJXFXNX7 < {...' O.[ ! ~ ^ W B.F.L./.~.a 8 mXJXJXdX8 l [.:.) ( / R R ^ W B.Q B./.Q.s & ",
"zX1X< x #.O.O.>.S.`.V.f.B.Z.Z.F.G.n.r g 7XhXmX2X, c .._ @.-.Q K.Z.M.W M.Q N.I.H.i e 4XmXdX<X< c } O.( -.{ T.C.D.B.W Q W F.H.u @ ",
"4 d {.@.( o.T U.;X%XK F V.Z.Z.Z.B.C.e.W.s 0 o x {...' XX@X$XK F z.K.G V a.Y.A.I.5.8.a 5 & c {.&.' O./ }.=X*X`.F.B.Z.Z.Z.B.A.k.e.",
"  < ..' _ ;.U.].qX%XN N K.Y.M.Z.F.Z.s.w.w .   , } ' :.OX$X:XN C z.K.G B M.B.Z.P.i.l.#     > =.` _ ;.}.'.:X:X(.g.P.Y.P.M.Y.Z.u.u.",
"  > } O./  X;XqX'.`.V.V.Z.B.B.B.B.B.u.h.w . . < } XX@X,X+XT.I.f.P.Z.f.V.M.F.Z.M.i.6.e     <  .O.[ }.=X:X'.(.C C f.F.B.F.Z.M.I I ",
"  : } O.T H.rXrX).B.M.M.M.Z.V.M.Z.Z.I 6.w .   , } XX,XyX/.V.V.P.V.f.B.B.V.a.F.M.d.0.q     > #.O.R ).rXrX].z.F B K.F.B.B.Z.M.I L ",
"  < %.+.! ).rXrX`.V.B B V.V.B G V.M.a.4.e X   , =.XX,XqXK C V.f.V V V.M.V V M.Z.d.w.q     : #.o.T ).wXrX).Z.K.f.P.F.B.B.Z.V.I c.",
". : %.o.T ).%X%X(.z.C Z f.f.G G f.P.i.5.%   X : $.-.=X%XK B P.V.Z V f.a.V J V.Z.s.j.q     : *.o.T T.-X-XL.B.Z.P.C.F.B.B.Z.Z.L I ",
"  , | +.! M.H H I.P.f.d.V.P.f.V.Z.M.g.e.q .   , { +.}.).z.z.M.P.d.z.P.P.a.W B.B.i.6.w     , :.+.T Z.).`.Y.F.M.Z.D.N.W D.Z.Z.i.L ",
"  : =.+.R A.C V x.z.P.M.V.f.B.Z.D.M.u.9.u   o : &.o.! N.Y.P.V.f.P.I.z.K.Z.B.D.M.i.h.q     = } o.^ Z.M.P.a.a.Z.Z.F.Z.M.a.B.B.L c.",
"  < =.>.E M.K.x.C B U M.V G V.F.Z.P.s.q.q     , *.>.^ Y.B.V.G B M.f.B C f.F.F.Z.x.q.q     , .X>.E B.F.V.C C f.P.M.M.B V V.P.d.c.",
"X c {. XG.B.P.d.B D M.M.B C a.Z.B.K.l.W.h 1 O x [..XS.P.Z.M.D G M.A.F F f.Z.C.K.l.W.t : - x [.|.^ B.Z.V.F F V.Z.Z.V.V F a.K.h.q.",
"fX2Xf h n.T.M.V.V.a.B.Z.f.f.P.Z.A.6.u t 7XhXgX1X, f R.P.B.B.M.U Z.Z.a.f.Y.Z.p.k.y t 3XkXsX2X< f J.G.C.Z.U U B.M.P.f.f.a.U 7.p @ ",
"JXdX8 a ~./.K.Z.Z.Z.Z.B.Z.Z.P.K.0.E.e 9 nXJXDXeX7 d Q.J.K.Z.B.B.M.Z.Z.Z.N.K.t.W.t 9 fXHXDXdX0 a ~.n.C.Z.B.F.W B.V.K.Z.P.7.8.a $ ",
"JXZXyX0X< e 7.Y P d.u.d.i.u.d.k.p r 7XMXFXDXvXcXzX1Xa i e.s.i.i.I i.i.i.d.5.u s 7XAXxXAXAXvXxX7Xg u 7.u.i.i.Y Y a.d.s.7.r a 2XmX",
"FXFXvXzXv > 1.7.w.q.q.6.0.6.q.E.s j 5XZXpXeXeXeXzX9X& @ 2.w.w.5.h.5.6.h.w.!.s 1 4XgXgXeXeXaXaX5X4 # E.l.0.w.e.4.h.w.l.E.e 7 MXJX",
"GXFXxXzXdX7X> @ q q q q e q # a 4XiX0 . 6 O = = 6 .     * r q q q # e % @ t 7X9X6 O - = o o 6 & + . q # # @ o % # w q u 6XzXnXHX",
"AXxXSXDXFXZXn + 2 3 & & o X o j iX9X< o $ : : : @ e e % .   4 * 3 3 ; = + n pX9Xl ; ; : : $ $ % e # .   O - 5 - 0 4 * j jXJXVXVX",
"VXHXFXJXFXZXhXsXdXsXgXsXlXsXdX1X7 l [..X&.&.#.|.b.n./.Q.# 3 7XnXhXiXdXaXgX7X1 l [.| #.&.#..Xb.n.n.~.@ $ 4XkXiX9XpXsXeXdXGXMXGXSX",
"VXHXFXFXHXFXJXGXJXGXZXHXlXSXDX0X, c %.` O.X.X.oX~ F.L.H.i f 7XkXHXJXGXAXSX0Xl l :.O._ +.+.;.^ D.F.J.i f 4XNXBXHXSXSXHXHXMXGXZXDX",
"cXSXAXFXSXHXSXvXAXAXSXBXJXfX7 , [...` ( / R ^ ^ Q G.B.C.H.Q.> 8 pXJXJXgX7 l {...] ( / ~ ^ ^ Q G.G.C.H.Q.e 9 gXJXZXSXSXNXDXvXAXZX",
"vXvXAXFXSXSXSXAXGXGXSXkXxX1X, x &._ :.XXG.B.a.a.B.D.W Z.Z.H.r > 1XgXhX1X, l :.` ' -.S.(.M.B.G.N.N.B.I./.u e 5XjXAXFXZXFXbXcXSXVX",
"cXAXFXFXSXSXSXFXGXGXSXkX7 < [.%.@.,.@X=XU.V.V D M.B.F.Z.Z.K.y.<.s & & x [.%.) O.[ S.;X:X`.B.Z.F.Z.F.P.L.9.E.a n pXDXSXDXAXAXFXHX",
"AXDXGXFXSXSXSXFXFXGXJXeX: , *.@.XXOX-X&X`.f.D V a.F.a.a.P.V.d.4.e     < } ` ( ;. X].8XqXL.B.K.d.Z.Z.Z.Z.Y 9.e 3 dXDXxXvXAXAXSXSX",
"SXDXAXFXFXcXSXAXFXFXDXsX- = *.XX@X*XS H z.M.f.V.B.M.G V x.I.g.9.e     , } O./ }.:X8XS N P.V.V Z V.Z.Z.Z.I 5.# 2 fXHXSXvXAXAXFXcX",
"cXSXSXAXSXSXSXcXAXxXDXsXO : | XX>XqXA V f.Z.Y.Z.D.M.D D K.I.u.4.q     , } o.T U.tXyXS B f.a.Z V f.Z.B.Z.I w.q 2 iXHXSXSXGXFXAXvX",
"AXSXAXAXSXAXSXvXvXcXSXsXO > #.XX>XrX(.I Z.Z.C.N.N.D.Q U P.Z.p.4.q   X , ..o.R ).rXrX(.f.Z.Z.V.f.Z.D.B.B.i.0.q O sXDXxXAXHXFXAXxX",
"HXSXFXAXSXFXSXSXcXvXHXfXo > $.,.#X-XI.B.Z.Z.P.Y.F.B.W D.Z.Z.u.5.r     : #.+.! ).;X:X(.a.Z.Z.V.V.B.F.B.Z.d.0.q * sXSXSXSXHXHXFXSX",
"CXHXFXvXAXAXSXAXcXcXJXmXO > $.>.}.U.Z.Y.P.Z.Z.A.F.Z.B.W Z.V.i.j.e     > *.+.^ P.`.(.C Z V.a.G G a.D.Z.Z.u.0.w * sXHXZXSXSXAXHXHX",
"HXFXFXFXAXFXSXSXAXZXHXhXo % |.-.^ N.Z.V.z.f.Z.Z.f.V.B.B.B.M.d.w.q   . a *.+.^ B.B.a.Z V M.V.G B M.Z.B.M.d.0.w * fXHXZXvXvXFXVXVX",
"HXFXFXSXAXAXDXFXFXZXJXfX+ $ m.{ ^ N.Z.f.C Z z.f.V V M.F.Z.K.d.q.q   @ % .X+.E B.B.Z.f.f.Z.Z.K.f.Z.Z.Z.Z.d.q.# 3 fXVXSXcXcXFXFXHX",
"FXHXAXAXSXSXAXSXAXHXHXhXm a 3.m.T.Z.Z.V.C V f.a.J V f.Z.P.A.k.8.g 5 3 c {..X^ W B.Z.Z.B.F.F.P.I.P.P.Z.V.h.<.j b mXHXcXxXDXGXHXHX",
"FXSXAXAXSXAXSXAXAXSXFXFXhX5Xe u n.I.P.M.M.M.B.Z.a.a.I.K.u.k.w a 0XiXfX2Xf s J.G.D.^ D.C.G.D.Z.K.P.A.a.4.i f 5XnXVXSXSXSXAXAXSXSX",
"AXSXSXSXSXSXSXcXAXDXSXSXJXMXj t Q./.I.P.B.D.B.M.B.F.K.I.l.E.a 7 kXVXJXdX8 a ~.H.C.N.Z.Z.B.C.K.V.Z.K.e.!.. - gXJXNXSXSXDXAXxXZXHX",
"AXDXAXAXSXBXSXFXAXDXZXHXHXFXmXuXt p t.u.Y u.i.i.p.Y d.j.y e 7XNXlXSXxXAXgX1Xa r e.s.g.u.P c.d.c.s.e.u .   5 fXJXAXAXxXcXDXAXSXVX",
"FXcXcXSXHXBXSXSXAXxXFXJXHXZXGXmX0 r 8.k.q.w.k.w.e.4.j.8.r 9 dXFXFXFXAXxXSXzX9 a E.q.e.0.5.j.j.q.q.<.g 6 + M eXSXAXAXxXAXAXSXHXSX",
"GXAXFXAXSXBXFXGXGXJXFXFXkXSXAXxXNX5Xf q q q q w e % # h 2XjXAXFXGXFXDXcXxXDXgX7Xs q q e q w r q q s 6XjXsXfXDXxXAXSXZXGXBXVXSXSX",
"GXGXFXcXVXBXHXGXGXGXHXHXSXcXcXxXHXfX:   . . .         3 gXJXSXAXGXZXcXvXcXxXGXmX3 .   .       . . * jXDXJXHXcXDXSXAXGXJXVXVXSXSX"
};
