/* XPM */
static char *result[] = {
/* columns rows colors chars-per-pixel */
"64 64 229 2 ",
"   c #36221D",
".  c #47150E",
"X  c #4F1A12",
"o  c #611F16",
"O  c #532C16",
"+  c #642618",
"@  c #663115",
"#  c #7C3913",
"$  c #543923",
"%  c #6A2C24",
"&  c #742926",
"*  c #673828",
"=  c #7A3230",
"-  c #5B421C",
";  c #6F4918",
":  c #7A531D",
">  c #584324",
",  c #534E38",
"<  c #664A28",
"1  c #685638",
"2  c #725330",
"3  c #745835",
"4  c #7B6234",
"5  c #3A3A46",
"6  c #453D48",
"7  c #593841",
"8  c #633C43",
"9  c #3D4447",
"0  c #4D4C52",
"q  c #56535C",
"w  c #69524E",
"e  c #7A6747",
"r  c #726B55",
"t  c #505A67",
"y  c #675765",
"u  c #52646B",
"i  c #5E6E74",
"p  c #646A66",
"a  c #6F756E",
"s  c #893A13",
"d  c #982A2D",
"f  c #8C2F30",
"g  c #A52D31",
"h  c #A82D30",
"j  c #A73734",
"k  c #AE3235",
"l  c #B33335",
"z  c #BC3537",
"x  c #BD3438",
"c  c #B33839",
"v  c #BC3B3B",
"b  c #C03B3D",
"n  c #9A4617",
"m  c #8C5319",
"M  c #A34C18",
"N  c #A95519",
"B  c #B25B19",
"V  c #A96C17",
"C  c #AA6C1C",
"Z  c #B9641A",
"A  c #BE6A1B",
"S  c #A7771E",
"D  c #B5761B",
"F  c #BB781C",
"G  c #8A542C",
"H  c #B24A3C",
"J  c #8E6C30",
"K  c #A3722B",
"L  c #C16E19",
"P  c #C5781C",
"I  c #C37A20",
"U  c #8B3E44",
"Y  c #944245",
"T  c #B84648",
"R  c #BB5446",
"E  c #B85D56",
"W  c #866D49",
"Q  c #8C754A",
"!  c #94734A",
"~  c #877658",
"^  c #B26E47",
"/  c #8C7C68",
"(  c #A86E67",
")  c #C44647",
"_  c #CA4D4F",
"`  c #C45448",
"'  c #C65C4C",
"]  c #CA4D50",
"[  c #CB5453",
"{  c #CB5758",
"}  c #C86652",
"|  c #C97557",
" . c #CE7B5B",
".. c #CD6B61",
"X. c #D16E64",
"o. c #D27369",
"O. c #76817F",
"+. c #AF8119",
"@. c #B0821A",
"#. c #B18933",
"$. c #C9851D",
"%. c #D3861C",
"&. c #D3891B",
"*. c #C2901E",
"=. c #D8961E",
"-. c #E1A61F",
";. c #D89A22",
":. c #E1A621",
">. c #E5AC30",
",. c #968358",
"<. c #B38C45",
"1. c #B0904D",
"2. c #9A8869",
"3. c #908772",
"4. c #A7916C",
"5. c #AB956C",
"6. c #B99D68",
"7. c #BAA476",
"8. c #C98E54",
"9. c #D8AC4C",
"0. c #CDA154",
"q. c #E3B34D",
"w. c #E8B754",
"e. c #D0926B",
"r. c #D88B7A",
"t. c #DA937D",
"y. c #CAA867",
"u. c #D1A76F",
"i. c #D7B56B",
"p. c #DAB66C",
"a. c #DAA875",
"s. c #DCB879",
"d. c #E0BC7B",
"f. c #DEC17F",
"g. c #4E7389",
"h. c #577889",
"j. c #677C90",
"k. c #5B8296",
"l. c #6E8388",
"z. c #67899A",
"x. c #5B8AA6",
"c. c #6992A9",
"v. c #75A4BF",
"b. c #71ACCC",
"n. c #77B5D9",
"m. c #7ABCE3",
"M. c #76C1E9",
"N. c #7DC4EC",
"B. c #7AC7F6",
"V. c #7DCCFE",
"C. c #7FD0FE",
"Z. c #888E88",
"A. c #B6A686",
"S. c #B0A891",
"D. c #B5AC97",
"F. c #8BADBB",
"G. c #C9958F",
"H. c #DC9881",
"J. c #CCB08C",
"K. c #D8BD88",
"L. c #C7B89B",
"P. c #E0BD83",
"I. c #E5B998",
"U. c #DEC185",
"Y. c #DDC596",
"T. c #E0C181",
"R. c #E2C68C",
"E. c #E3C797",
"W. c #E4CC9C",
"Q. c #E8CE9C",
"!. c #EAD19E",
"~. c #D9CCAF",
"^. c #E9CDA6",
"/. c #E9CEA8",
"(. c #E8D3A8",
"). c #EAD5AB",
"_. c #E4D6B6",
"`. c #EBDAB3",
"'. c #EDDDBA",
"]. c #EFE1BF",
"[. c #F0E1BE",
"{. c #81B3CC",
"}. c #86BCDA",
"|. c #80BFE5",
" X c #83C6EA",
".X c #95D2EE",
"XX c #86CCF6",
"oX c #82CFFD",
"OX c #85D5F8",
"+X c #85D2FE",
"@X c #8BD5FE",
"#X c #8ED9FE",
"$X c #96D5F7",
"%X c #91D6FD",
"&X c #94D9FD",
"*X c #9BDBFD",
"=X c #A3DEFC",
"-X c #A9DEFA",
";X c #B1DFF8",
":X c #A4E1FD",
">X c #ABE1FB",
",X c #B3E4FA",
"<X c #BBE7F8",
"1X c #BCE5F9",
"2X c #EFE2C1",
"3X c #F0E3C3",
"4X c #F2E8CD",
"5X c #F4EBD3",
"6X c #CDECF7",
"7X c #C2E7F8",
"8X c #C4EAFA",
"9X c #CCEDF9",
"0X c #D8EEF6",
"qX c #D3EEF9",
"wX c #CFF0F7",
"eX c #DAF2F7",
"rX c #E5F5F5",
"tX c #ECF5F6",
"yX c #E4F8F7",
"uX c #EAF9F7",
"iX c #E5F6F9",
"pX c #EBF7F9",
"aX c #E5F9F9",
"sX c #EDF9F9",
"dX c #F2F6F6",
"fX c #F3F9F7",
"gX c #F2F7F8",
"hX c #F3FAFA",
"jX c #F9FCFC",
/* pixels */
"0XrXdXjXfXuXfXuXuXrXuXpXyXuXtXtXuXdXuXyXuXhXuXuXsXhXhXiXyXsXuXuXrXrXsXjXjXfXdXtXrXrXtXdXdXtXsXhXsXaXaXsXpXyXaXhXsXsXhXhXyXyXyXaX",
"0XrXfXjXjXuXsXhXrXyXuXsXyXuXtXrXuXdXfXuXpXsXuXsXhXhXhXaXaXsXuXsXyXrXsXjXfXfXdXtXtXtXtXdXfXtXsXhXaXsXsXjXjXhXpXsXjXhXuXpXsXhXtXsX",
"eXrXhXfXjXuXdXdXpXrXpXuXrXtXtXtXuXtXuXuXsXsXpXsXsXhXsXaXuXsXuXsXyXuXsXhXfXsXdXtXtXtXtXtXuXsXsXhXaXaXjXhXjXjXpXsXjXhXpXiXhXjXfXsX",
"rXsXpXhXfXfXtXtXtXdXpXuXrXtXtXrXuXiXrXhXfXhXpXsXhXhXsXaXsXhXyXsXuXfXsXuXhXpXrXrXtXdXrXrXtXhXsXhXsXsXjXhXhXhXaXyXhXhXsXyXsXfXsXpX",
"uXuXtXpXhXtXtXtXtXtXdXtXrXtXdXdXuXrXuXtXhXsXuXfXjXhXsXsXhXjXaXsXhXgXiXpXsXhXhXhXuXtXtXrXhXsXsXsXsXsXjXfXpXpXrXfXhXhXpXrXsXhXsXpX",
"tXtXrXrXuXuXtXrXtXtXdXtXtXtXdXtXsXuXsXdXfXsXuXhXjXsXsXsXjXhXsXsXhXgXpXhXhXsXhXuXgXuXrXtXfXhXgXsXsXsXjXhXpXaXrXtXsXsXsXrXsXsXhXuX",
"gXdXrXrXrXtXrXrXrXrXtXdXuXuXrXsXjXfXjXuXhXsXpXpXsXsXiXsXhXsXaXsXsXhXsXjXhXsXyXyXhXtXrXpXhXhXhXhXsXuXfXgXsXtXrXtXuXuXuXuXhXpXsXhX",
"dXtXtXuXrXtXdXtXrXrXrXtXtXrXrXrXhXhXfXfXsXhXsXsXsXsXsXhXsXhXsXaXhXfXsXsXjXhXsXpXrXiXpXhXsXsXhXuXsXhXfXgXtXuXrXeXrXdXtXuXuXyXuXuX",
"tXdXdXdXrXtXdXdXtXtXgXdXrXrXrXrXhXsXhXsXhXjXhXhXsXsXsXhXhXhXfXaXhXhXhXpXsXfXjXhXpXsXsXhXuXtXpXrXtXtXtXtXtXtXtXrXtXdXpXgXsXsXpXpX",
"dXtXdXrXrXdXtXtXrXdXgXgX0XrXgXtXhXeXaXsXhXsXfXuXsXsXaXsXhXhXsXaXiXpXfXuXiXsXjXhXpXsXsXsXtXtXeXrXrXrXrX0XtXdXdXdXtXgXpXhXhXsXrXuX",
"tX7X0XtX;X6X;X0X$X1X6X$X=XqX1X6XpX,X:X>XwX<XwX<XjXsX<XqXjX8X>XeXiX1XhXsXsXsXhX7X*XqX,X*XrXdXeX,X;X1X7X1X7X6XdXrX,XeXgXpX,X=X<XhX",
"6X-X0XdX1X1X1X0X$X-X0X$X=X0X8X1XiX9X<X8XwX>XwX,X8X8X<XiXeX8X$X<X9X9XiXqXeX8XeX0X*X9X=X@X7XpXwX>X-X1X=X=X1X7XrXrX-X7XqXiX,X@X>XiX",
"-X.X0XdXiX=X6X6XOX-XtX,X7XgXpX;XeXhXaXpXeX>XeX<X+X#X8XhX<X8X*X$X=XhXqX:X<X+X7XhX,X8X:X@X&XqX<X>X,X7XXXOX<X;X7XrX>X,X>XeX9X#X=XwX",
"-X;X-X$X0X$X%X-X7X<X7X%X$X6XqX9X,XwX,XwX:X>XsX9X+X,X<XqXyX:X*X8X>XeX$XXX&X@X8X7X7X,X:X&X%X>X6X;X7X,X;XOX@X%X*X6X<XeX:X&X*X<X#X,X",
"%X-XXXXX;X+XV.$X,X=X,X&X@X>X-X-X&X,X*X<X#X*X<X,X&X,X>X>X<X#X.XF.z.F. X@X#X@X=X$X;X>X*X%X@X*X,X=X>X$X*X+X+X+X@X,X>X1X$XOX#X,X&X*X",
"B.m.oXXX@X@XoX@X@XOX*X>X&X@X+XV.+X#X&X:X#X#X#X&X*X:X&XC.B.n.u O.D.Z.i {.$X@XoXoX@X=X*X@XoX%X@X@X@XC.V.oX+X@X@X@X@X@X@X#X#X&X=X#X",
"B.oX+X@X@XoX@X@X+X+X@X&X@X+XC.C.+X&X&X%X&X@X@X=X*XOXC.b.k.p ~._.2X_.Y.a z.b.B.C.$X%X@XV.oXoX+X+XOXoXoX@X@X@X@X@X@X@X@X@X%X&X#X#X",
"%X+X@XoXoXoX@X+X+XV.+X@X+X+X+X#X%X&X@X+XOX X|.|.M.b.k.3.D._.].].2X].].`.D.Z.l.b.N.N.m.m.B.oX@XoXoXoXoX@X+X@X@X&X@X@X@X@X%X@X@X#X",
"=X$XoXoXV.oX%X@X@X+X+X@X+XC.#X:X&X@XOXm.c.0 , , , 1 3.~.[.2X2X].2X].[.].[.~.2.1 , , , , z.|.&X@XV.V.+X@X+X@X@X*X&X+X+X@X@X+X+X+X",
"oXoXoXV.oX@X>X@X@X@X@X@X+X+X*X&X@X@Xn.p ; F &.:.-.+.; W 7.`.].].2X].[.[.A.W : #.:.:.=.P ; y }.oXV.V.oX+X+X#X*X&X@X+XoX+X+X+XoX+X",
"oXV.oXoX+X=X*X@X@X&X*X&XOX&X*X#XC.B.p C L &.=.-.-.-.=.S J 5.(.].].].(.5.G S =.-.-.-.=.%.L C r m.V.V.V.oX@X&X*X@X+X+XC.+X+XoX+X+X",
"V.V.oX+X%X-X+X@X@X:X=X&X#X*X&XOX+Xv.> A L A P $.$.&.-.-.*.J 2.E.(.W.4.J ;.:.:.&.$.$.P A A P $ x.B.V.oXoX@X*X&X+X+XC.C.OX+X+X+X+X",
"V.oX@XoXoX+X@X%X*X&X@X#XC.#X#Xn.h.a $ N M s N B B Z L =.-.%.: 4.s.5.: $.;.;.P B B N N M n B $ u g.n.XXOX+X@X+X+X+XC.+X&X+X+X@X&X",
"@X%X+XV.V.V.@X@X&X&X+XOXB.n.c.O.S.~.$ s s N A L A A Z A P %.$.m 2 4 F &.%.L B Z L L L N s m O S.D.j.z.n.+X+X@X@X+XC.&X&X+X@X*X=X",
"*X$XoXV.V.V.oX@X@X@XoXn.k.O.D._.2X_.$ @ n N L L L L L Z Z P L L *.$.A P Z Z A L L Z L B n s X L.[._.D.l.k.b.+X+X+X+X*X#XC.&X:X:X",
"$XoXV.B.V.oX+X@X@XN.g.i S.].].].2X_.~ @ n M Z Z Z L Z L Z B P &.=.-.$.Z Z A A A L L B M s o e (.].[.4X_.S.a h.B.OX+X@X+X+X:X>X&X",
"oXV.V.V.oX@X@X@Xn.t D.~.].].[.[.].'.K.W $ # s ; s # f M M M D D $.$.D n n n s s # ; # # * W K.'.].].].2X2X~.D.0 x.+X&X&X#X&X*X@X",
"V.V.oXV.@X%X@X@Xb.r Y.'.5X3X].[.].].`.Y.u.Q W W W e * O m N M n @ n N N N @ > 4 W W W Q y.K.`.3X].].2X4X5X5X`.r g.XX&X&X&X+X@X+X",
"B.oX*X&X%X@X+X+Xb.W i.f.f.4X4X].].].].[.(.R.U.U.6.1 G D $.%.A n X M A $.%.D : > 7.f.R.Y.(.[.].[.[.3X4X5X`.(.!.~ g.+X+X+X+X@X@X#X",
"oX+X&X@X@X+XoX@X{.r i.i.i.f.W.[.4X3X[.[.].(.A.,.< : m @.&.$.D J 2.2 V *.$.P m : 2 Q A.).].[.3X2X4X5X[.).Q.Q.^.r g.@X+X+X+X#X#X*X",
"+X%X%X@X+XoX@X*X{.r f.f.i.i.f.f.^.2X4X_.L.r Q #.9.#.J : V m 4 A.`.J.4 m S ; J #.9.#.,.r A._.4X4X].(.!.!.Q.Q.E.r g.OX@X@X@X#X*X=X",
"oX+X@X+XoX@X&X*X}.9 ,.1.f.q.i.i.i.s.Y.a 1 0.q.q.w.9.1.> $ ,.K._.[.[.Y.2.$ > <.9.w.q.q.0.3 a ].(.Q.Q.Q.Q.^.K.3.9 x.+X+X+X+X*X:X:X",
"oX+X+X+X+X%X@X@XoXB.5 O ! y.u.i.i.i.i.1 <.w.w.9.1.J 1 7.Y.Q.].2X[.[.].).Y.7.e J <.9.w.q.#.r !.W.Q.!.W.U./ * 0 oXV.oX+X@X&X>X>X:X",
"V.oX+X+X+X&X@X+XV.m.5 f & * Q 0.i.i.i.2 I ;.#.< ,.7.W.`.].[.].].].].].].].`.~.7.,.1 0.>.@.e W.W.!.A.2.1 & f 0 m.oX@X+X@X*X:X:X#X",
"+X+XoXV.oX+X+XV.+XN.5 d d d & $ Q y.i.1 D &.V - Y.2X4X3X[.].].].].[.].].2X3X4X4X_.4 *.:.@.e !.Y.2.* & g l d 0 B.%X&X+XoX+X+XC.V.",
"V.V.V.V.oX+X+X@X#X X6 g h d j H 4 4 Q < F &.S > i.U.).3X5X3X2X].].].].].5X4X3X(.W.e *.-.@.e 4.e e ^ c l l k 0 %X@X+X+X+X#X&X@X+X",
"V.V.V.+X@X@X@X@X@XN.0 h l k ^ 0.0.K % . D &.V < i.i.i.U.).3X5X3X].3X4X5X].).!.Q.Y.e *.:.+.O = ^ i.p. .H ) T q $X+X+X@X@X+X:X&X+X",
"C.+X+X+X@X@X&X&X@XN.6 k b  .i.0.8.H d X D &.V < i.i.i.f.p.s.).3X5X5X3X(.!.Q.Q.W.Y.e *.-.+.o j R y.T.T.t._ T q B.+X#X&X@X#X&X*X&X",
"+X+X+X#X&X#X@X@X@XN.6 l  .d.d.a.R g d o D &.V   ,.y.i.i.p.p.p.R.4X`.Q.Q.Q.^.Q.Y.7.$ *.:.+.O l x { I.).^.t.T q oX@X&X@X@X@X$X*X*X",
"+X+X@X*X*X@X+XoX@XM.0 | s.d.a.' x c g o D $.V O J : ,.y.p.p.p.s.`.Q.Q.Q.W.K.5.1 e < *.:.S + ) _ _ X.I.^.^.e.t oX&X&X%X@X@X%X*X*X",
"oX@X&X>X*X#X+XC.@X X0 u.U.a.` v x x l o D &.C < ^ f + < ! y.i.p.`.Q.W.E.2.3 = d ^ 3 *.-.+.% [ ] ] ] X.I.).L.i @X+X@X*X&X*X*X#X+X",
"@X*X*X*X&X+XC.+X+XN.0 K.a.R z z x x l + D %.V X j g h f % > 6.u.`.E.A.1 * d l l c % *.-.D * [ _ ] ] ] ..Q.L.p oX+X+X&X&X%X&X@X+X",
"*X-X*X&X@XC.V.+XOXN.q e.} z v z x v | 1 D &.V . g h g j ^ <.2 W 4.~ e 6.| c l v c @ *.-.+.e H.{ ] ] ] ] X.H.p oX+XoX@X@X&X@X@X@X",
",X=X&X@X+X+X+X+X#XN.0 R v z z z v  .s.3 D &.V . k z k } 0.0.| G U f 8.i.p.e.` _ T + *.-.+.W ).t.{ _ ] ] [ E t OXoXoX@X%X&X@X+X@X",
"&X&X#X+XC.+X@X@X@X X6 l z z b b  .f.s.3 D &.V . k v e.d.p.8.j k [ k T e.R.!.H.[ T + *.-.+.e `./.r._ _ _ ] T q XX@X@X#X+X@X+X#X*X",
"#X#X+XC.+X+X@X@X%XXX6 z b z b  .s.U.u.< D &.V . c  .s.d.a.R l k [ c T ..I.)./.t.T + *.-.+.3 I.(.^.t.{ _ ) T q oX@X&X#X#X@X+X#X:X",
"@X#X+X+X@X@X@X@X@X X6 h z z  .s.K.a.' + D &.V X | s.d.a.` b z v { ) ] ] ..I.^./.r.* *.-.+.% o.I.(.^.t.[ _ T q V.*X:X*X#XC.C.&X&X",
"@X+X+X+X@X@X#X&X%X|.6 l b | d.f.a.` l o D &.V - p.d.a.) z b v b { ] ] ] _ ..I./.Y.3 *.-.+.% _ o.E.).^.r._ T q #X*X&X#X#XOXOXOX#X",
"@X@X+X@X@X#X@X%X@XN.9 k | s.d.a.' z z o D %.V - i.a.` b z z z ) r.{ _ _ ] _ o.I.R.4 *.-.@.% ] ] o.I.`.^.r.R q %X&X@X+X+X+X+XOX+X",
"@X&X@X+X@X@X@X@X@XN.5 H s.f.a.} x x l + D &.V < e.' z z b z v o.^.H.{ _ ] _ _ X.H.3 *.:.@.% ] ] ] o.I.).(.( 0 oX@X+XC.+X+XoX+X+X",
"@X&X@X+X@X@X+X+XoXXXx.i ~ u.' b x x l o D &.V O H b z z v v  .T.)./.H.{ ] ] ] ] } < *.:.+.% ] ] ] ] o.I./ i x.@X@X+X@X@X+XV.+X@X",
"@X%X+X@X&X@X+X+XoX+X@XM.c.q f k c x c + D &.V . l z z z b  .P.T.(.).^.t.[ _ _ _ T @ *.:.@.* { ] ] T Y p c.n.@X@X@X@X@X@X+X+X+X#X",
"@X@X+X@X*X@X+X+XoX@X@X@XOXn.c.y f T E 2 D %.V . l z b z  .s.d.a.r.I.).^.H.{ ] _ T + $.-.+.r G.( U y j.n.@X@X@X@X@X@X%X&X+X+X@X@X",
"@X+X+X&X@X@X@X+X@X&X@XoX@X*X$X}.x.p ~ 1 D %.V . h b z  .s.d.a.' { ..I.)./.H.{ _ T + *.-.+.p Z.i x.|.XX%X@X+XoX+X%X-X*X@XV.@X@X@X",
"+XoX@X*X@X@X@X@X@X%X+XoX@X*X%XoXoXn.x.9 K F V . l v  .d.P.a.` b { ] X.I.)./.r.[ H @ *.=.S 9 c.}.@X%X+X%X@X+X@X%X&X-X*X+X+X@X%X@X",
"+X+X*X@X@X@X@X+X+X+XoXoX@X@XoX@X@X$XXXn.h.r <   l | s.d.a.' b b { ] ] o.I.).^.r.) O 4 e l.}.$X@X@XoX+X@X+XoX&X*X:X&X+X+X&X&X@X@X",
"@X@X+X@X@X@X#X@X+X+X@X&X*X@X+X@X%X%XoXoXB.m.k.  W u.d.a.' b x b { [ ] ] X.I.).Y.( 5 k.b.XX&X@X@X@X+X+X+X+X@X*X&X@X+XV.+X#X#X+X+X",
"+X+X+X+X@X&X#X@X+X+X@X%X%X@X@X+X@X&X&XoXV.oX+X Xz.p 6.` x x x b { ] ] { ] ..A.p h. X%X#X&X#XOX+X@X@X@X+X@X%X#X@X+XC.+X@X@X@X+X+X",
"+XV.oX@X&X*X+X+X+X@X@X+XoX+X@XoX@X:X:X&XXX@X&X@X$X}.h.w f k x b { ] ] T Y w h.}.*X=X&X&X&X#X+X+X@X*X@X+X@X&X@XV.C.C.@X#X#X@X+X+X",
"+XV.+X@X@X+X+X@X+XV.oX+X@X+X@X+X&X,X*X@XoXoX@X@X@XXX+Xn.j.7 d k { ] Y 8 j.b.XX$X:X:X,X:X#XOXC.V.@X&X@XV.oX@XoXoX+X@X>X&X+X@X+X+X",
"+X+X+X@X@X+X+X+X+XV.+X+X@X@X%X@X&X*X%X+XoX+X+X+XoX@X%X%X@XM.t 7 Y 8 u  XXXoX=X-X:X*X:X*X+X+XC.+X@X@X+XoXoX+XoX@X@X*X=X@X+X+X@X@X",
"@X@X@X+X@X@XV.V.oXV.+X+X@X%X&X&X@X@X@X+X+XV.oX@XoX%X&X+X+XC.V.b.j.v.*X@X@X@X=X;X=X&X&X@X+XoXC.+X@X@X@X+X@X+X@X@X&X>X%X@X+X@X@X#X",
"*X&X@XoXoX+XV.oXoXV.V.oX@X+X+X@X@X@X@X&XV.C.oX+X@XoX@X@X@X+X@X@X@X@X@X@X@X@X%X&X@X+X@X@X@X@X+X+X@X&X*X&X@X+X@X%X>X&X+X+X+X+X&X*X",
"&X%XoXV.oX@XV.+XoXV.V.@X@X+X@X+X@X@X*X&XV.+X+X+X+X@X@X%X@X+X@X#X@X@X@X+X@X@X@X@X+X+X#X@X@X+X+X@X*X*X*X%X@XoX@X@X*X@X+X+X+X@X&X=X"
};
