/* XPM */
static char *result[] = {
/* columns rows colors chars-per-pixel */
"64 64 244 2 ",
"   c #1B1519",
".  c #261A16",
"X  c #352815",
"o  c #1C1D23",
"O  c #231D24",
"+  c #36192A",
"@  c #3D1C31",
"#  c #16242A",
"$  c #172C36",
"%  c #153339",
"&  c #28262A",
"*  c #292D34",
"=  c #322C31",
"-  c #39363B",
";  c #482514",
":  c #562515",
">  c #552D11",
",  c #5D3C12",
"<  c #6F3017",
"1  c #491D34",
"2  c #551E3C",
"3  c #4E2F20",
"4  c #422E28",
"5  c #483328",
"6  c #513726",
"7  c #492E38",
"8  c #653729",
"9  c #3E473A",
"0  c #51490F",
"q  c #6F510D",
"w  c #5A690F",
"e  c #554538",
"r  c #6B4E2C",
"t  c #133147",
"y  c #2A3846",
"u  c #363D47",
"i  c #551A43",
"p  c #6E1B4A",
"a  c #443B46",
"s  c #543149",
"d  c #652245",
"f  c #75254E",
"g  c #7B2752",
"h  c #673151",
"j  c #16474B",
"k  c #19555A",
"l  c #38464D",
"z  c #2C4A53",
"x  c #374B57",
"c  c #0B4A6D",
"v  c #155065",
"b  c #325268",
"n  c #1A6E73",
"m  c #2B6D74",
"M  c #48474B",
"N  c #554B4B",
"B  c #464A54",
"V  c #45525A",
"C  c #58555A",
"Z  c #6D4D45",
"A  c #725249",
"S  c #7E5C49",
"D  c #705153",
"F  c #716853",
"G  c #4B5868",
"H  c #635861",
"J  c #55666D",
"K  c #4B677B",
"L  c #586A75",
"P  c #66676A",
"I  c #79676E",
"U  c #686C75",
"Y  c #6B7478",
"T  c #777A7D",
"R  c #863414",
"E  c #933A17",
"W  c #8E5510",
"Q  c #A84612",
"!  c #88620A",
"~  c #98710B",
"^  c #AA680F",
"/  c #A37409",
"(  c #C85407",
")  c #CF5606",
"_  c #D55C06",
"`  c #D77108",
"'  c #842957",
"]  c #933463",
"[  c #A9316D",
"{  c #B93476",
"}  c #C4377C",
"|  c #8E675A",
" . c #8C4B6C",
".. c #A64C6C",
"X. c #8F6E6A",
"o. c #A27465",
"O. c #A6811A",
"+. c #D49406",
"@. c #E58C0E",
"#. c #D3A705",
"$. c #F8AD03",
"%. c #B38776",
"&. c #C88D79",
"*. c #025C8E",
"=. c #015F94",
"-. c #0B6991",
";. c #237988",
":. c #056AA0",
">. c #0276B5",
",. c #007DBE",
"<. c #397CA2",
"1. c #4E6F86",
"2. c #4C718B",
"3. c #587789",
"4. c #547D95",
"5. c #6F7A86",
"6. c #007EC0",
"7. c #CD3B82",
"8. c #DB3D89",
"9. c #E23F8D",
"0. c #AC5D84",
"q. c #867B82",
"w. c #AF6888",
"e. c #B56C8D",
"r. c #D4518E",
"t. c #E2418E",
"y. c #E64290",
"u. c #E74A95",
"i. c #E45899",
"p. c #CD6C9A",
"a. c #E95EA0",
"s. c #E974A9",
"d. c #1D8489",
"f. c #268D93",
"g. c #269FA4",
"h. c #27A7AD",
"j. c #2BB6BC",
"k. c #54898D",
"l. c #59839D",
"z. c #6A868D",
"x. c #7C8387",
"c. c #668899",
"v. c #798F98",
"b. c #5B8AA9",
"n. c #518CB0",
"m. c #638EA9",
"M. c #6693AD",
"N. c #739BA8",
"B. c #6697B5",
"V. c #659BBC",
"C. c #6B9DBC",
"Z. c #739EB9",
"A. c #52A9AD",
"S. c #6DABBB",
"D. c #77A2BA",
"F. c #3095CB",
"G. c #30BCC2",
"H. c #689FC1",
"J. c #57B5C8",
"K. c #6EABCC",
"L. c #74AACA",
"P. c #77B3D7",
"I. c #6FB3E3",
"U. c #79BDE5",
"Y. c #4FC4C9",
"T. c #74C8C9",
"R. c #7BC2EC",
"E. c #7CC8F5",
"W. c #7DCCFE",
"Q. c #7FD0FE",
"!. c #868586",
"~. c #88888B",
"^. c #888E93",
"/. c #8D9396",
"(. c #989699",
"). c #9F9FA0",
"_. c #BA9BA2",
"`. c #9BA3A6",
"'. c #8BAAB8",
"]. c #A7ABAC",
"[. c #AFB6B9",
"{. c #D69B84",
"}. c #DCA995",
"|. c #E1A28A",
" X c #E4AC96",
".X c #E5B39E",
"XX c #ECBAA5",
"oX c #F7C3AD",
"OX c #F8C8B3",
"+X c #A3BEC7",
"@X c #EF99C1",
"#X c #C0BFC0",
"$X c #ECB0CE",
"%X c #EEAED1",
"&X c #8FCBD5",
"*X c #B3C9CA",
"=X c #85C4E6",
"-X c #97CEEC",
";X c #87CDF5",
":X c #82CFFE",
">X c #87D3F8",
",X c #85D2FE",
"<X c #8BD5FE",
"1X c #8ED9FE",
"2X c #97D6F7",
"3X c #91D6FD",
"4X c #94D9FD",
"5X c #9BDBFD",
"6X c #B2D7EB",
"7X c #A3DEFC",
"8X c #A9DEFA",
"9X c #B2E1E3",
"0X c #A6E1FD",
"qX c #ABE2FC",
"wX c #BAE5F7",
"eX c #B2E3FA",
"rX c #BCE5F9",
"tX c #C8CBCC",
"yX c #D5CFD4",
"uX c #CBD3D4",
"iX c #CAD5D5",
"pX c #D4D8DA",
"aX c #F7D5CC",
"sX c #D8DEE1",
"dX c #EED5E3",
"fX c #DAE4E4",
"gX c #C8EAF8",
"hX c #D7EEF7",
"jX c #DDF2F5",
"kX c #E5E5E5",
"lX c #E7EBEB",
"zX c #E6F0EF",
"xX c #E5F5F5",
"cX c #ECF5F6",
"vX c #EAF9F7",
"bX c #E5F7F8",
"nX c #ECF7F9",
"mX c #E5F9F9",
"MX c #ECF9F9",
"NX c #F2F6F6",
"BX c #F3F9F7",
"VX c #F2F7F8",
"CX c #F3FAFA",
"ZX c #FDFEFE",
/* pixels */
"hXxXBXCXCXMXBXCXbXbXmXvXvXvXcXxXvXNXvXvXvXMXvXvXCXCXCXmXmXmXvXBXxXxXvXZXCXNXNXcXcXxXcXNXNXvXMXCXMXmXmXMXvXbXmXCXMXMXCXCXmXbXbXvX",
"hXzXCXCXCXcXCXvXbXbXvXvXmXcXcXxXvXNXNXvXvXMXvXMXCXCXCXmXmXMXvXvXxXxXvXZXZXBXBXcXvXxXcXNXBXMXMXCXmXMXCXCXZXVXMXMXCXCXvXvXMXCXVXvX",
"jXcXCXZXCXBXMXBXcXcXvXvXcXcXcXxXcXcXMXMXvXCXvXvXMXCXMXmXvXMXvXvXmXmXvXCXBXnXNXcXcXcXzXvXvXMXMXCXmXMXCXCXZXCXvXvXZXCXvXbXVXZXCXvX",
"xXvXvXCXBXMXBXcXNXcXcXcXzXxXcXcXcXbXbXvXCXCXvXvXCXCXMXmXCXCXmXvXvXBXvXvXMXcXbXxXvXNXxXzXMXBXMXCXMXMXZXCXCXCXmXcXCXCXMXbXnXCXMXbX",
"cXvXvXvXnXcXcXcXNXcXNXcXcXcXNXMXvXxXcXcXCXBXvXBXcXuXiXiXuXpXiXiXiXiXtXiXuXuXuXuXiXiXzXvXCXMXMXMXmXMXZXNXbXvXvXMXCXCXvXbXnXCXMXvX",
"vXvXcXxXcXcXvXzXxXzXNXcXcXcXNXvXCXMXMXBXBXvXzXkXtXU P C C H C C H H H C H H C C P !.iXfXCXCXMXCXMXMXZXCXvXmXxXcXCXnXvXbXVXvXMXMX",
"VXcXxXxXxXcXxXxXxXzXcXVXcXcXbXvXCXCXBXMXBXxX[.P T [.`.a  .w.w.w.w.w.w.w.w.w. .B ].].U P sXCXMXCXCXMXBXVXnXcXxXxXcXvXvXvXCXvXCXCX",
"cXNXcXcXxXcXNXcXcXxXxXcXcXxXxXbXBXCXBXMXcX#X5.].tXpX5.[.dXdXdXdXdXdXdXdXdX_.I #XjXfX[.].x.tXCXvXMXCXVXNXcXcXxXjXxXVXcXvXvXbXvXvX",
"VXcXVXVXxXcXNXNXxXVXnXcXzXxXxXbXMXMXCXCXtX`.*XcXpX^.0.%X%X%X%X%X%X%X%X%X[.^.[.NXcXVXCXCX].(.pXmXnXnXcXxXcXNXxXbXxXVXnXVXMXMXcXnX",
"VXNXVXzXzXVXzXcXzXVXVXnXhXcXcXvXCXmXmXMX~.T vXvX].a s.u.y.y.9.y.9.9.9.9.g H ZXZXCXZXZXZXsXY ].mXxXzXjXlXxXNXBXNXnXVXnXCXCXMXbXvX",
"cXgXjXzX8XhXeXhX7XrXhX2X7XgXrXgXMXeX8X&Xx./.hX6X(.D a.u.y.y.9.y.9.9.9.7. .!.ZXZXZXZXZXZXzX(.(.6XeXrXwXwXgXgXBXxXeXjXVXbXeX8XrXMX",
"gX7XhXNXrXrXgXhX<X8XhX2X7XhXgXgXmXgXrX5.^.lXZX].H a.u.y.y.y.y.y.9.u.y.' q.lXZXZXZXZXZXZXCXiXT D.8XrX8X7XwXgXxXzX8XgXhXbXeX<X8XbX",
"8X;XhXNXxX7XhXgX>X8XxXeXgXVXnX8XhXBXMXY ~.ZXZX).h s.u.y.y.9.u.9.u.u.9.f ~.ZXZXZXZXZXZXZXZXkXY '.eXgX>X;XrXeXwXjXeXeXqXjXgX<X0XgX",
"8XwX8X2XhX3X;X8XrXwXgX2X<XhXhXgXqXhXeXU ~.ZXZX).D s.y.y.y.9.9.u.u.9.9.f ~.ZXZXZXZXZXZXZXZXkXU D.gX8XeXW.1X3X5XhXrXhX5X4X7XwX1XwX",
"3X8X3X:XeX;XW.3XeX7XeX5X<XqXqXqX4XeX5XL ~.ZXZX).H s.u.9.9.9.u.9.9.9.9.f ~.ZXZXZXZXZXZXZXZXkXU N.8X4X5X,X,X,X<XqXqXrX4X>X1XeX4X5X",
"E.U.:X:X<X,X<X<X<X>X5X0X4X<X,XW.,X1X4XL q.kXkX/.s r.7.8.7.7.8.7.8.8.7.p q.lXkXkXkXkXkXkXkXyXP M.>XQ.Q.;X,X<X<X1X<X<X1X1X1X5X7X<X",
"E.:X<X<X<X:X<X<X,X,X,X3X<X,XQ.Q.,X4X4XK N !.!.C 1 p g p g g g g g g f 1 C ~.~.~.!.!.!.!.^.X.l B.>X:X:X<X<X<X<X<X1X<X<X<X3X3X3X1X",
"<X<X<X:X:X:X:X<X,X,X,X<X<X,X,X1X3X3X<Xm.y & * # t t t y a y t a N y t t t t t t t & - o + & x K.:XW.:X<X,X<X1X4X1X<X<X<X3X<X<X1X",
"7X3X:XE.W.:X3X<X,X,X,X1X,XQ.,X0X4X<X,XE.K u V t *.=.-.<.B.<.<.[.[.<.=.=.*.=.=.=.c t J   : = M.;XW.W.,X<X,X<X<X7X<X,X,X<X<X,X,X<X",
":X:X:X:X:X<X8X3X<X<X<X<X,X,X7X4X1X<X,X,X2.B J c >.6.F.-XF.F.6XhXI.6.,.,.,.,.6.6.*.z z.& : 5 D.>XW.W.:X,X,X<X5X3X<X,X:X,X,X,XQ.,X",
":XW.W.:X<X7X5X<X,X5X5X1X<X4X5X<X<X,X:X:X2.V L v >.F.6XF.F.6XxXJ.6.6.6.6.6.6.6.6.*.z z.o . = D.,XW.W.W.:X<X3X5X<X,X,XQ.Q.,X,XW.,X",
"W.W.:X:X3X7X<X<X<X0X7X4X<X5X4X,X,X,X,X,X2.x L $ ;.&XH.F.=XsXq.z =.6.6.6.,.,.6.:.t y z.O I C B.,XW.W.W.:X<X5X4X,X,XQ.Q.>X,X,X,X,X",
"W.:X<X:X:X:X<X<X5X5X3X,X,X<X<X<X<X,X,X<X2.V L 7 | 5.c b 5.q.| S x c c c c v c b N u 5.& _.P B.Q.W.,X,X,X,X<X<X,X,XQ.,X4X,X,X1X4X",
"3X3X<XW.W.W.<X<X4X3X,X,X,X<X<X<X,X,X<X5X3.V U F %.A D A D X.}. XX.A A D A A A | o.N z.& %.D m I.:X3X<X,X,X,X,X<XQ.,X4X4X,X<X5X7X",
"5X5X:XE.W.W.:X<X<X,X,X,X<X3X3X<X:X,X<X0X3.V L F .X.X X|.{.(.%.}. X|.{.|.}..X.X X%.V z.o S r * 1.M.=X5X:X:X:X<X<X,X,X5X1XQ.1X0X0X",
"3X:XW.W.W.,X,X<X<X,X,X<X3X1X1X,XW.,X7XqXm.J G F XXaXaXOX}.D e &.XXXX.X.XOXaXaXOX%.l Y M X w 0 X + z.-X5X<X:XW.:X,X,X<X,X<X0XqX4X",
":XW.W.E.,X<X<X<X,X<X<X3X3X1X,X,X,X<X3X5X>Xb.* A |.oXoXoXoXoX.X.XXX.XX.%.oXOXOXoX%.& - tX9 . > E Q 8 1.;X<X:XW.:X,X<X4X4X1X4X4X<X",
"W.E.:XW.,X3X<X<X<X3X3X3X1X,X,X:X<X1X,X<X,XU.P.c.| {.|.XXoX.XS e 8 N X..XoXoX.X{.%.X o l * ; < E R R 8 4.U.:XW.:X,X1X4X4X1X<X1X,X",
"E.W.5X4X3X<X,X,X,X5XqX4X<X,X:X:X,X,X<X>X;X2X<X=Xc.D S {.|.{.o.| | | &.}.|.|.&.Z V k n d.z.N < < R E R e b.E.W.W.<X,X,X,X,X<X<X3X",
":X<X4X3X<X:X,X3X3X0X5X<X,X,X,X,X,X,X<XZ.L Z.1X4X=X2.& e Z Z A A r Z Z r r A N k n f.h.G.Y.z.e < R < E < 1.U.W.:X1X<X<X,X,X<X4X5X",
":X3X3X,X<X:X<X4X5X5X<X:XW.:X<X<X,X,X<XL.x x D.2X<XP.# k $ z k U - M b k %   j g.h.f.n j.j.T.z.8 ; ; : ; K U.:X<X1X<X,X<X,X1X4X0X",
":X,X<X,X:X<X3X5X1X,XQ.Q.,X<X0X5X,X,X4X0X3.  V M.B.4.# k j ;.g.S.x.5.N.A.n $ % ;.;.n % m d.d.A.3.O y G b b.E.3X7X,X,X,X,X<X5X0X0X",
":X:X,X,X,X3X<X<X,XW.,X<X<X5X5X3X,X3X8X8X3.$ * O & o - # j d.j.j.9X~./.&XG.n o 9 e u l 7 o % f.T.M c.0XQ.W.:X:X<XW.,X,X<X4XqXqX5X",
":X,X,X,X,X3X<X,XQ.,X,X1X4X0X5X1X<X4X0X8X3.G 1.5.v.M #Xl n k g.j.9X/./.&XG.d.- ].pXyXtX#Xl d.j.Y.z v.5X>X:X:X:XW.,X,X,X<X5XqX0X1X",
",X,XW.W.:X,X,X:X,X,X,X1X3X4X3X1X<X<X<X;X1.* y Y (.N uXx ;.k f.j.Y.*X~.`.&Xd.& x.[.U P P * f.Y.&XV l.1XQ.:XW.W.,X3X3X,X,X,X,XQ.,X",
"W.W.W.W.,X,X,X<X<X<X<X1X1X3X<X,X<X<X3X:X2.x K P x.C iXz f.d.k g.j.&X~.(.&Xm - `.].C (.].l '.9XT.z l.>XQ.:X:X<X<X<X,X,X,X<X4X<XQ.",
"W.Q.W.,X<X<X<X<X1X<X<X<X<X<X<X<X<X<X4X>X1.* y * C `.pXl d.d.t g.j.T.+X~.'.v.& x.].e C H & k.S.f.% l.:X:X:X,X3X3X,X,X<X<X1X5X5X,X",
"Q.W.,X<X<X<X4X3X<X>X<X<X,X,X,X<X<X1X3X;X1.u x x L x.[.l n n % d.h.h.T.Y !./.* /.[.x.Y U * n d.v K P.<X:X<X3X,XW.,X1X3X<X<X4X5X4X",
",X,X,X<X4X1X<X<X<X<X<X<X<X,XQ.,X<X<X<XW.B.4.G V J * Y $ j k # v n n 3.V C C 9 x.v.^.^.x.* j v $ S.<X>XW.:X;X,X,X1X3X1X<X,X2X7X5X",
",X,X3X4X5X<X,X:X<X<X<X,X,X,XQ.Q.,X,X,X:X<XH.x z z y o l z y o + + + @ 1 @ 4 + @ @ + o @ + - @ # D.2X:XW.W.W.,X<X4X3X3X<X<X4X5X4X",
",X<X4X0X5X1X,XQ.<X<X<X<X:XW.:X,X,X,X,X<X3X2XR.=X=XK.G C.=XM.a [ { [ [ ] ' ] { [ { ] 2 ' 0.e.0.@ '.3X:X<X<X,X<X1X<X<X7X4X5X7X<X,X",
"<X5X5X7X4X,XQ.,X<X<X:X3X<X:X:X,X<X<X1X4X5X<X<X<X<X;XK.K m.5.0.r.8.8.{ f 1  .i.t.t.7.{ h _.p.[ i Z.3X<X:X,X,X<X,X,X,X4X3X<X4X<X,X",
"5X8X5X4X<XQ.W.,X<X,X<X5X<X:X,X<X<X3X4X5X5X,X>X<X<X,X=Xy s 0.r.u.y.7.g ] e.r.u.y.y.y.i.#XI ] [ i Z.;X:X<X:X<X,X,X,X:X<X<X3X<X,X1X",
"eX7X3X<X,X,X,X,X<X<X4X4X<X<X<X3X4X4X4X5X,X<X<X<X<X;X=XB ..i.u.u.7.' D r.i.u.y.y.9.i.$X@X] p p 2 B.:XW.W.:X,X1X,X,X:X<X<X4X<X,X1X",
"5X4X,X,XQ.,X<X<X<X4X5X<X,X<X<X4X5X5X<X<X,X,X<X<X<XR.4. .r.u.y.9.{ d ] r.u.y.9.y.a.@X@X8.{ p p 1.=XE.:XE.Q.<X1X1X,X1X1X>X3X<X<X5X",
"1X1X,XQ.,X,X<X<X<X4X4X,X,X1X3X7X7X4X<X,X,X,X<X<X,XK.7 r.u.y.y.y.{ d ' t.y.y.y.y.s.$Xr.[ ' f G 4.U.U.:X:X,X<X1X,X1X1X1X1X,X,X<X7X",
"1X<X,X,X<X<X<X<X<X<X,XQ.Q.1X7XqX5X3X<X,X,X<X<X,X,XP.+ r.u.y.y.y.{ d ' t.y.y.y.t.@X$X} p G 3.'.b.m.I.W.<X<X,XQ.,X4X0X5X1XQ.Q.4X5X",
"1X,X,X,X<X<X1X4X1X,X,XQ.<X3XqX7X4X<X,XW.W.,X,X<X1XP.@ 7.y.y.y.t.7.i ' t.t.y.y.y.a.%Xe.s c.=X;XU.4.b.I.U.U.>X,X1X7X4X1X1X1XQ.>X1X",
"<X<X,X<X<X<X1X3X<X<XQ.W.<X5X8X4X<X<X<X,X,X:X<X<X5XP.a [ 8.8.t.9.{ f p } 9.9.9.9.9.s.dX..a H.:X:XU.b.2.M.b.R.<X4X4X<X,X,X,X>XQ.,X",
"<X4X<X,X<X1X<X,X,X,X,X,X:X5X5X:X,X,X3X4X:X:X:X3X7X<XL.s [ } { } { [ d ' { { } } { p.dX{ a B.:X<X3X;X4.2.U.W.,X<X1X,XQ.,X,X:X,X,X",
"<X4X<X,X<X<X<X,X,X,X,X,X:X<X;X:X>XW.,X<X:X:X<X3X3X<X:XB.a 1 1 2 1 1 . + 1 1 3 1 1 s D 1 O G P.<X3XH.4.b.B.E.<X<X<X,X<X<X,XW.,X1X",
"<X3X,X<X4X<X,X,X;X,X<X,X:X:X<X<X,XW.;XQ.W.:X:X<X<X,X:XK.9 q X q ! ! W ; 0 0 X q ! ! q . > - C.<X3XH.V.K.H.;X<X<X,X<X<X1X,X,X,X1X",
"<X<X:X<X5X<X1XK.l.b.C.;X<X<X5X2XV.4.n.P.W.Q.,X,X,X:X;Xz.O.#./ +.$.@.^ ~ +.#.~ $.$.$.+.X ^ e Z.<X<X<X:X:X<X3X<X<X<X<X3X4X:X,X<X3X",
"<X,X,X4X<X<XP.T r q F z.b.M.M.c.F r r Y b.b.b.m.b.M.4.9 w ~ / / / ~ 0 q / / ~ / / / ! . q 5 L B.m.m.b.m.m.b.b.b.M.N.D.=XW.<X1X<X",
",X,X<X5X<X<X4.r @.@.^ r 6 6 5 = ^ @.@.W 5 5 6 6 e 3 3 : , > > > > > > > > > > > > > > ; > ; 3 6 6 5 6 6 6 5 6 6 6 4 l P.,X<X<X<X",
",X,X4X3X<X1X4.< _ _ _ ` +._ ( : Q _ _ ) ) ) _ ` +.) ) ) _ ) ) ) ) ) ) ) ) ) ) ) ) ) ) ) ) ) ) ) ) ) ) ) ) ) ) ) _ Q N P.4X3X<X<X",
"<X<X,X<X<X<X;Xc.4 4 4 4 5 4 4 & = 4 5 = 5 4 = 5 5 5 4 4 4 4 4 4 4 4 4 4 4 4 4 4 = 5 5 4 4 4 4 4 4 4 4 4 4 4 4 4 4 N H.>X<X3X<X,X",
",X,X,X,X2X5X<XU.V.V.V.Z.S.V.C.C.C.D.D.V.V.B.C.C.D.D.D.S.C.D.H.V.V.V.V.C.V.V.V.V.C.C.C.C.C.C.C.V.C.C.C.V.C.C.C.C.B.K.E.<X<X<X,X,X",
",XQ.W.<X3X5X:X,X;X,X<X,X,X,X<X,X<X0XqX4X>X<X3X1X4X4X,X3X5X0X3X,X:XW.:X<X,X,X<X<X5X0X4X4X4X1X>XQ.1X5X<X,X3X3X<XW.W.Q.<X1X1X<X,X,X",
"Q.Q.,X<X<X,X,X<X,XW.:X<X,X,X,X,X4XqX5X<X:X,X<X,X,X<X1X4X4X<X,XW.:X<X4X7X<X,X<X5XqX0XqX7X3X,XQ.Q.<X3X<XW.,X<X:X:X,X<XqX3X,X<X,X,X",
",X,X<X<X<X,X,X,X,XW.,X,X<X<X3X1X3X7X1X,X,XW.,X,X,X<X1X1X<XQ.Q.,X<X3X5X5X<X,X5XqX0X5X0X5X<XQ.Q.,X<X<X,X,X:X,X,X<X<X5X7X3X,X,X<X<X",
"<X<X<X,X<X<XW.,X:X:X:X,X<X3X4X3X<X<X<X:XQ.,X,X,X,X3X1X<X,X,X,X<X1X4X5X<X<X<X0XeX0X3X4X1X,X,XQ.,X<X<X<X,X,X<X<X<X4XqX3X<X,X<X1X1X",
"3X5X,X:X:X,XW.:X:XW.W.,X<X,X<X<X<X<X<X3XW.,X,X,X,X,X<X<X<X,X<X<X<X1X<X<X,X<X<X3X,X,X<X<X<X,XQ.,X<X5X5X3X<X,X<X3XqX3X:X,X,X<X<X5X",
"5X3X:XW.,X,XW.,X:XW.W.<X<X,X,X,X<X<X5X3X,XQ.,X,X<X<X<X<X<X,X<X<X<X<X<X<X<X1X<X<X,X<X<X3X<X,X,X<X5X5X5X3X,X,X<X<X5X<X:X,X,X<X4X0X"
};
