/* XPM */
static char *result[] = {
/* columns rows colors chars-per-pixel */
"64 64 239 2 ",
"   c #60541F",
".  c #686E0C",
"X  c #6E643E",
"o  c #746D55",
"O  c #6D7B66",
"+  c #777866",
"@  c #6F7570",
"#  c #9F5D1A",
"$  c #AF5409",
"%  c #B65B0B",
"&  c #BA5E10",
"*  c #BD610A",
"=  c #BE6313",
"-  c #BC671B",
";  c #8B6F34",
":  c #BD6F27",
">  c #B4732E",
",  c #BA7637",
"<  c #C06616",
"1  c #C46D11",
"2  c #C26917",
"3  c #C1691A",
"4  c #C16E22",
"5  c #CC7D24",
"6  c #C47829",
"7  c #D27F20",
"8  c #C57B37",
"9  c #8B7547",
"0  c #857755",
"q  c #A57D46",
"w  c #857765",
"e  c #86796C",
"r  c #867972",
"t  c #877B75",
"y  c #B57C66",
"u  c #748B0F",
"i  c #7CAB0C",
"p  c #7FB402",
"a  c #7FB20C",
"s  c #7F9E23",
"d  c #748674",
"f  c #9C940E",
"g  c #82B503",
"h  c #88B407",
"j  c #84BB02",
"k  c #8DA810",
"l  c #859634",
"z  c #A9872A",
"x  c #A59A25",
"c  c #B98238",
"v  c #87B12A",
"b  c #D78925",
"n  c #D6902F",
"m  c #DD932C",
"M  c #C28735",
"N  c #D28D34",
"B  c #CC9337",
"V  c #D79A39",
"C  c #E1982E",
"Z  c #E29B32",
"A  c #DCA03A",
"S  c #E7A236",
"D  c #E5A43A",
"F  c #E9A63A",
"G  c #E7A83C",
"H  c #EBAA3D",
"J  c #89C201",
"K  c #828647",
"L  c #908F4D",
"P  c #87835D",
"I  c #A3854B",
"U  c #B68548",
"Y  c #B88957",
"T  c #B09054",
"R  c #BA9B5D",
"E  c #89AD53",
"W  c #B5AE56",
"Q  c #8A8C71",
"!  c #AA8968",
"~  c #B1956F",
"^  c #A59479",
"/  c #8CAE71",
"(  c #BAAC66",
")  c #C88649",
"_  c #CD9843",
"`  c #D5AE4E",
"'  c #D4B14B",
"]  c #C7A95B",
"[  c #D5A756",
"{  c #E2A644",
"}  c #E9AC44",
"|  c #E4AD4B",
" . c #E3B153",
".. c #C09166",
"X. c #DBB361",
"o. c #CDAC75",
"O. c #E9BA64",
"+. c #8AC256",
"@. c #8DC075",
"#. c #D6C56D",
"$. c #3B74BB",
"%. c #5E7392",
"&. c #306ECA",
"*. c #3476D8",
"=. c #3B78E3",
"-. c #437AD7",
";. c #457BE1",
":. c #718688",
">. c #799188",
",. c #789598",
"<. c #799DAA",
"1. c #7AA2B0",
"2. c #4A85D7",
"3. c #578DD8",
"4. c #6E9DD6",
"5. c #7DB1CB",
"6. c #76ACD2",
"7. c #538FE2",
"8. c #67A9E8",
"9. c #73ADE3",
"0. c #7CBCE9",
"q. c #76BCF4",
"w. c #7CC7F7",
"e. c #7DCCFE",
"r. c #7FD0FE",
"t. c #86898A",
"y. c #909488",
"u. c #888C90",
"i. c #889298",
"p. c #A39C88",
"a. c #B09F81",
"s. c #92A796",
"d. c #B9B58D",
"f. c #A6A598",
"g. c #B5AD91",
"h. c #869CA8",
"j. c #8B9EAE",
"k. c #A490B5",
"l. c #9AAAA9",
"z. c #8FB5AF",
"x. c #88A9B8",
"c. c #9AB5B8",
"v. c #A7ABA7",
"b. c #A7B6A9",
"n. c #B5B9AA",
"m. c #A7B9B7",
"M. c #D1B58A",
"N. c #C3BC9B",
"B. c #D3BDA1",
"V. c #8AC58B",
"C. c #BCC19E",
"Z. c #8DCBB1",
"A. c #B1C5B5",
"S. c #D6C58E",
"D. c #C8C598",
"F. c #DCC6A7",
"G. c #CDC9B5",
"H. c #D9D5B7",
"J. c #E2C9B0",
"K. c #84ACC4",
"L. c #85AFC8",
"P. c #86B3C9",
"I. c #96B7C5",
"U. c #90A3D3",
"Y. c #86BAD7",
"T. c #97BAD4",
"R. c #A2AAC5",
"E. c #A8B3D1",
"W. c #92B5EC",
"Q. c #99B6E9",
"!. c #96B8FB",
"~. c #ADB5E8",
"^. c #CFBFDD",
"/. c #D1BCE7",
"(. c #99C8CC",
"). c #8BCED3",
"_. c #8AC2DE",
"`. c #97C7D8",
"'. c #ADD0DA",
"]. c #8BC3E1",
"[. c #82C5EB",
"{. c #88C7E9",
"}. c #93CAE6",
"|. c #95D2EB",
" X c #86CAF6",
".X c #84CCF5",
"XX c #8BCEF4",
"oX c #82CEFD",
"OX c #95C9F7",
"+X c #85D2F7",
"@X c #8CD2F6",
"#X c #85D2FE",
"$X c #8BD5FE",
"%X c #8ED9FE",
"&X c #93D3F4",
"*X c #9BD6F5",
"=X c #91D6FD",
"-X c #94D9FE",
";X c #9BDBFD",
":X c #B5C7EB",
">X c #B4DAE8",
",X c #A9CAF4",
"<X c #ACD3F0",
"1X c #A3DEFC",
"2X c #A9DDF8",
"3X c #A6E1FD",
"4X c #AAE2FD",
"5X c #BAE5F6",
"6X c #B2E4FA",
"7X c #BCE5F9",
"8X c #CCD5C6",
"9X c #D0CED5",
"0X c #E2D5C4",
"qX c #F2E4C4",
"wX c #E7E6D9",
"eX c #C5CCEC",
"rX c #DDE7E9",
"tX c #DFF1EC",
"yX c #C6E9F7",
"uX c #CCEBF6",
"iX c #D4EDF6",
"pX c #DBEEF4",
"aX c #D4EEF9",
"sX c #DEF2F6",
"dX c #EBEEEA",
"fX c #E5F5F5",
"gX c #ECF5F6",
"hX c #E5F8F7",
"jX c #EBF9F7",
"kX c #E6F6F9",
"lX c #EBF7F9",
"zX c #E5F9F9",
"xX c #EDF9F9",
"cX c #F2F6F6",
"vX c #F2F9F7",
"bX c #F9F8F6",
"nX c #F2F7F8",
"mX c #F3FAFA",
"MX c #F9FCFC",
/* pixels */
"pXpXbXMXMXjXjXxXhXfXzXjXzXkXlXfXhXcXvXjXjXxXkXxXmXmXmXkXzXkXjXlXfXhXxXMXMXbXcXgXgXfXgXcXbXgXxXmXxXzXzXxXxXkXkXmXxXxXMXmXzXzXhXzX",
"pXfXMXMXMXfXvXvXkXhXjXjXgXjXcXfXjXbXvXhXjXxXjXjXxXmXmXkXzXxXjXlXfXfXjXMXmXmXcXlXgXfXgXcXxXxXxXmXzXxXxXMXMXcXxXxXMXmXgXkXxXvXxXjX",
"pXfXxXMXMXjXvXvXgXfXjXjXfXgXgXfXjXlXxXjXxXmXkXxXxXmXmXzXxXxXlXnXfXxXxXMXmXxXlXgXgXgXfXgXxXxXxXmXzXzXMXmXMXMXjXxXMXmXkXzXvXbXvXxX",
"fXxXjXxXMXgXvXgXlXcXcXjXdXfXgXgXfXkXfXxXmXvXjXvXxXmXxXzXxXmXgXdXdXwXdXzXmXgXfXfXlXcXfXfXgXvXxXmXxXxXMXmXxXMXzXfXxXMXxXzXxXmXvXkX",
"jXjXjXlXgXlXcXjXgXgXgXgXgXgXvXxXjXhXfXcXMXxXjXmXMXmXxXxXmXMXwXB.M.M.B.J.wXcXmXcXvXgXfXdXvXxXxXxXxXxXMXmXkXjXfXvXMXmXjXhXxXmXxXxX",
"lXjXgXfXlXgXgXfXgXgXcXcXgXgXlXxXxXjXvXlXvXxXjXMXMXxXxXxXMXwXo.6 & & & q M.wXvXlXxXgXfXgXmXmXcXxXxXxXMXmXjXzXfXcXxXxXjXgXxXmXxXjX",
"cXgXfXfXgXgXfXtXtXgXcXgXlXfXgXjXMXvXbXgXgXxXxXgXxXxXkXxXmXF.8 < & & $ $ 8 0XzXkXvXlXfXkXmXmXmXmXxXvXvXcXlXlXfXfXgXgXkXkXmXjXxXmX",
"cXlXgXgXfXfXcXgXfXgXfXgXgXfXfXhXvXmXMXvXxXgX9XrXjXxXxXmXxXJ.8 2 & & % & 4 H.lXkXkXkXlXmXmXlXmXkXxXvXvXmXlXgXfXsXfXcXgXjXjXzXjXjX",
"gXnXnXgXfXgXcXgXgXgXgXgXgXfXfXfXvXvXvXxXgX8Xp.v.pXxXxXmXMXJ.M < = = & & 3 J.bXmXgXlXxXmXgXfXgXgXgXgXgXgXgXcXfXkXkXbXgXlXxXxXkXxX",
"nXnXgXdXgXgXgXgXpXgXnXfXpXfXgXfXvXtXzXxXwXS.w :.9XxXkXmXMX0X) 2 = = & * < F.bXmXlXlXlXmXfXgXsXkXfXfXpXpXfXcXcXbXkXcXlXmXmXlXgXlX",
"gXyXpXgX2XaX5XpX2X7XaX;X;XuX>Xm.n.'.'.4X8X#.W t.9XzX7XaXMX9X..2 < = & = < B.cXyX;XaX6X;XfXnXzX6X4XyXyX5XyXuXcXfX6XsXmXkX6X1X7XmX",
"uX2XpXcX5X7X7XiXOX2XaX;X1XsXeXi.O ( #.D.d.' W Q I.5X7XfXfX'.Y 4 < = * & * g.tXiX;XyX1X$XyXkXaX4X2X5X2X1X7XyXkXfX2XyXaXkX6X$X4XkX",
"2XOXuXgXfX2XiXuX+X3XtX5XyXbXfXP.@ L ` ] W W ' Q %.l.H.qX8XH.R # $ 3 3 2 2 ^ 9XvX5XyX<X@X*XiX7X4X6XyX@X+X7X5X5XtX5X6X4XsXuX%X3XuX",
"1XyX2XOXiX=X$X2XyX5XuX%X$XaXaX9Xp.I I ` ` _ ' T o ] X.O.O.X.` M > 8 N m Z [ S.S.S.S.D.D.D.D.S.D.F.D.D.C.C.C.D.S.N.8X3X-X;X7X%X6X",
"OX2X=XoX4X@Xr.-X6X3X5X-X%X>X>Xn._ c o T ] B V q 9 U A G H F G G V B V D G } } } } } | | | | | |  .| | | { { { N ) n.*X+X%X6X-X1X",
"e.e.oXoX$X#X#X$X$X+X1X'.A.D.o.[ Z V I 9 P c D _ B V A G F F F F F D Z { D G H H F F F F F H H H H H H H S b 6 Y p.`.%X+X%X;X;X%X",
"e.e.$XOXoX#X$X$X|.(.C.o. .} } H H H { I I V G H H H H H H H H F H H F S F F F F F F F F H H F H H H H H m 5 U c.|.$X$X$X=X-X%X%X",
"$X#X$X#XoXXX(.A.M.X.| } H H H H H H H A V H H H H H H H H H H H H H H H F F F H H H H H H H H } H H H S 5 U c.&X$X$X$X$X=X$X$X%X",
";X-X}.`.A.o.X. .} } H H H H H H H H H H H H H H H H H H H H H H H H H F H H H H H H H H H H H H H F m 5 ! I.@X;X%XoX#X$X$X#X#X$X",
"#XoXI.] { } } H H H H H H H H H H H H H H H H H H H H H H H H H F F F F F H H H H H H H F H H H H m 6 ^ `.@X;X%X$XoXoX#X#X#Xe.#X",
"e.e.[.I.a.[ V F F F F H H H H H H H } H H H H H H H H H H H H H H H H H H H H F H H H H H H H H F D R }.$X=X;X$X#Xr.r.r.#X#Xe.#X",
"e.e.#X X&X'.v.o.{ H H H H H H H H H H H H H H H H H H H H H H H H H H H F F F F H H H H H H H H H H ` b.XX;X-X#X#X#Xr.r.#X#X#X$X",
"e.oX$XoXoXoX+X|.m.o.{ } F F F H H H H H H H } H H H H H H H H H H G D D F F H H H H H H F F F F S S m _ b.@X#X$X#Xr.#X;X#X#X$X-X",
"$X=X$Xe.e.e.+X%X*X|.m.[ Z F H H H H H H H H H H H H H H H H H H H b ; M S H H H H H H H H H F F F F S D [ A.@X#Xr.#X%X;X#X%X;X;X",
";X;XoXe.e.e.oX$X%X$XoX_.d.V b Z H F F F H H H H H H H H H G H H H A z B F H H H H H H H H H H H H H F F F [ b. X#X#X;X$Xr.%X4X3X",
";XoXe.w.e.oX#X$X$XoX$X$X-Xc.R C F F F H H H H } H H H H G G H F S S Z n Z Z Z m m b m b b b b 7 7 7 5 5 5 , Y I.$X#X$X$X$X1X4X%X",
"e.e.e.w.oX$X$X$X#X$X$X%X-X$X}.d.{ S F S F Z m b b b 7 7 5 6 6 6 = 1 * * * % - T ^ ^ ^ p.p.f.s.l.c.c.I.(.T.].[..X$X#X%X%X%X-X;X$X",
"e.e.e.e.$X=X$X$X$X=X=X=X-X#XoX.Xm.Y 8 M q T ! ^ p.f.v.c.I.P.T.I.I * * * % % , Y.oXe.#X#X%X%X=X#X#X#X#Xr.r.r.oXoX#X$X;X-X%X#X$X$X",
"e.e.;X-X=X#X#X#X#X;X4X-X$X#XoXoX+X{._.}.&X&X%X-X-X%X#Xr.e.-X2X|.~ 4 < < = = , T.@X#X$X-X-X;X=XoXoXoXoXoXe.oXe.e.$X#X#X$X#X$X$X%X",
"e.$X-X%X=X#XoX$X-X1X;X$X#XoX#XoX#X#X$X%X;X;X%X-X-X%Xr.#X$X-X;X&Xa.6 3 < = = : I.$X#X$X-X1X=X%Xe. XoX#XoX#XoXe.oX$X$X#X#X#X$X-X;X",
"oX%X%X$X#X#X$X;X;X;X$X#Xr.oX$X%X#X#X$X-X1X;X;X;X%X#Xr.#X-X-X%X$Xf.8 3 3 < = : c.oX+X%X3X1X%X+XoXe.$X$XoXoXe.e.%X%X$X$X$X#X%X;X1X",
"oX$X$XoXoX#X-X;X%X#Xr.e.#X%X1X;X#X#X-X3X4X1X4X;X$X#Xe.#X%X@X$X%Xv.M 3 3 = - 3 f.oX$X3X6X1X X4.9. X;X;XoXe.e.=X1X$Xr.r.#X$X;X3X3X",
"oX#X#X#X#X=X$X%X#X#XoX$X$X1X;X=X#X-X4X4X;X;X1X%X#XoXoX#X].L.[.#XI.U 3 3 < = - p..X%X4X1X-X[.3.3.9.1X1X#Xe.e.oX#XoXoX#X$X-X4X4X1X",
"e.oX#X#X#X=X$X#Xe.oXoX%X=X1X;X%X#X-X4X2X&X%X=X+XoXoXoX[.,.O 5.#XT.U 3 < < = - ~ .X-X4X-X$X9.-.;.3.,X;XoXw.e.e.e.oX$X#X$X;X4X3X%X",
"#X#XoXe.oX#XoXoX#X#X$X%X-X-X%X%X%X$X+XoX X@X.X.X.X+XOX5.+ o <..X`.Y 3 3 < = - y }.-X=X%X$X9.-.*.2.w.q.8.7.4.9.oX=X%X#XoX$X#Xe.r.",
"e.e.e.e.oX#X#X#X$X$X#X%X%X%X%X$X$X$X%X@X.X X0.Y.Y.Y.}.<.9 ; ,.w.}.~ 4 3 3 = < > T.&X@X$X0.-.*.*.&.2.2.=.-.7.9.XX$X$X#X#X$X-X%Xe.",
"e.e.e.#X#X$X$X$X%X$X$X$X%X$X$X#XoX%X=X@X+X[.<.O + Q y.d T 9 o 6.*X^ : < 3 = < : c.XX@X$X4.*.*.$.%.&.*.=.2.8.@X=X#X#X$X#X$X;X;X#X",
"r.r.#X$X$X%X;X=X$X#X$X$X#X#X#X$X%X=X%XoX+X.X6.,.+ ; ; I d.Q O <.}.g.: 3 - < < 3 l.OX@X@X0.3.3.6.$.&.*.3.0.@X#Xe.#X$X-X$X$X-X;X-X",
"oX#X#X%X=X%X%X$X$X$X$X$X$X#Xr.#X$X%X$Xe.#Xr.#XXXP.:.o Q `.}.5.].,Xb., 3 3 3 - 2 f.$X%X@X@X,XOXOX4.&.2.8.e.#X#X#X-X-X%X$X#X&X;X;X",
"#X#X%X-X-X%X$XoX#X$X%X#X#X#Xe.oX#X#X#XoX#X+X$X$X$XY.:.:.Y.$X$XOX!.c., 3 4 6 3 ) G.-X%XoXOX/.:X/.~.9.9.e.e.e.#X$X-X%X-X$X%X-X;X;X",
"oX$X;X3X;X%X#X#X%X%X#X#X#XoX#X#X#XoX#X$X-X;X#X%X%X@XY.Y.OX!.!.!.!.U.y , 8 M.) F.rX*X*X,X~.9X^./.eX,X X#X$X#X$X%X#X$X1X-X-X;X%XoX",
"=X;X;X;X-X#Xr.e.oX$X#X=X$XoXoXoX$X$X%X-X;X%X#X$X$X%X X-XOX!.Q.R.E.Q.k.y ) J.J.J.G.}.:X~.^.0XM.9XeX~.#X$X#XoX$X#X#X#X=X=X=X-X$X#X",
";X1X;X-X#X#X#Xe.#X$X$X-X=X#X$X#X$X=X-X;X;XoX$X%X$X#X$XOXOX!.Q.g.k.~.k...M.J.H.D.A.`.2X(.E.9X^./.,XOXoX#XoX#X$X#X#XoX$X%X=X$X$X$X",
"6X1X-X$X#X#X#X#X$X$X-X;XoX$X$X%X-X-X-X;X$X$X$X$X$X#X-XOX!.!.Q.R.R.~.k.a.o.#.H.D.`.|.).Z.'.:X:XeXOXoX[.w.oX$X$X$X#XoX$X%X-X%X#X%X",
";X-X$X#X#X#X#X$X$X=X;X$X#X#X$X;X1X=X$X=XoX#X%X%X#X#X#XoXoX X!.!.W.W.c.! z ] H.( Z.(.V.Z.).Z.x.j.h.<.j.5..X%X%X$X$X$X$X$X%X+X$X;X",
"$X$X#Xr.#X#X$X%X$X-X-X#X#X$X-X1X1X-X$XoXe.+X@X X X X[.[.W.Y.U.U.z.s.^ z f x W x v E E z.s.P P e e e t.j.Y.Y.].Y.Y.}.].].].[.=X;X",
"%X$X#X#X#X$X%X%X%X$X#Xr.#X%X1X4X*X}.].Y.L.x.x.j.h.h.i.,.,.u.t.Q d E l f f k k h h k K P l K 0 w w w e t.u.u.u.u.i.y.u.i.i.h.-X;X",
"%X#X#X#X$X%X%X=X%X#X#Xr.#X-X1X1XOXXXY.0.Y.L.x.h.i.u.t r r r e + P l k f f h h J h k l l v l 0 r e e r r r r r t t t r Q t.h.+X%X",
"%X$X#X#X$X%X%X=X$X#Xe.e.%X;X1X;X=X#X@X#X X[. XW.`.T.L.K.x.x.x.x.Z.s.v k k j j j p h v a l l P y.x.K.K.K.K.L.P.I.K.K.K.L.P.Y.+X#X",
"$X=X%X$X$X$X$X#X$X#X#X#XoX;X;XoX#X#X=X;XoXe.oX=X3X%X+Xw..X+X{.Z.V.@.v h g p p p p g j i s d / ).XXXX Xq.w.w.+X@X@X@X.XoXoX.X#X#X",
"%X-X$X#X$X$X$X#XoX#X#X#XoX#X#XoX#XoX#X#XoXoX#X=X-X#Xr.r.#Xr.$X).Z.+.s p p p p j j j J i s / Z.&X$X$XoXe.oX#X#X$X$X#X#X$X#Xr.#X%X",
"$X=X#X#X-X$X#X#XoX$X%X#XoXoX$X$XoXoX#XoXe.oX#X$X$X#X#X#X#X#X$X%X|.Z.+.a p p p j j j p i / z._.|.=X$Xe.e.oX$X$X$X$X$X%X%X#X#X#X%X",
"$X#Xe.%X;X$X#X#XoX%X$X%X$X#X1X=X#XoXoX Xw. XoX#X#Xr.#X$X$X$X$X%X-X&XZ.a p p j j J J g s >.Y.}.OX=X$XoXoX%X$X$X$X$X=X=X-XoX#X$X%X",
"%X#X#X-X-X#X#X$X$X=X$Xe.$X;X;X#XoXoX#X#XoXoX#X=X%X%X$X-X-X$X%X$X%XP.d s p j j J J J i .   >.2X;X$X$X$X=X$X$X$XoX%X1X1X$Xe.$X%X$X",
"$XoX$X;X$X#X$X$X$X=XoXoX$X;X=XoXoX$X#XoXe.oX$X=X;X-X-X;X-X%X$X$Xr.1.X   . . u u u . .   o z.1X;X$X$X$X$X$X#X$X%X-X1X;XoX#X$X%X#X",
"oXoX;X=X$X$X$X#X#X#XoXoX$X$X$X$X$X$XOXe.w.oX=X=X;X;X-X-X%X$X$X$Xr.r.1.,.d O O d d :.,.6.}.;X%X$X$XoX#X$XoXoX-X;X1X-X#XoX;X=X$X$X",
"$X$X#X$X$X%X%X$X#X#X$X-X;X$X$X$X$X$XoXoXe. X#X$X-X4X3X-X#X$X%X#X%Xr.r.w.XX.X[.w.w..X@X@X%X=X%X$X$XoX#XoX#X$X-X-X%XoXe.#X%X%X#X#X",
"#X#XoX$X%X-X$X$X#X#X%X=X$X#X$X#X%X-X-X#XoXoX$X$X-X3X;X=X=X-X%X#X+Xr.r.#X+X#X+X+X$X-X$X%X%X$X$X#X$X%X$XoX$X%X-X$X#XoX#X$X$X$X#XoX",
"#Xe.e.$X=X;X#X#X#X#X$X#XoXoX#XoX$X3X2X-XoX%X-X%X-X-X#X-X;X;X-X#Xr.r.r.%X#X#X$X%X;X1X-X-X-X$X#X#X%X;X%X#X=X=X#XoXe.#X%X%X%X%X#X#X",
"r.e.oX$X%X#X#X$X#Xe.oX$X$X#X$X$X;X4X;X%XoXoX$X#XoX$X%X-X-X%X#Xe.r.$X-X1X$X#X%X;X4X1X4X1X%X#Xr.e.$X=X$XoXoX#XoXoX#X$X3X-X#X#X#X$X",
"#X#X#X$X$X#X#X#XoXe.oX#X$X%X%X%X=X;X=X#XoX#X#X#X#X$X%X%X%XoXe.#X$X%X;X;X$X#X;X4X2X;X3X;X#X#Xr.e.$X%X#XoXoX#XoX$X%X;X1X$X#X#X$X$X",
"$X%X%X#X$X$Xe.r.#XoX#XoX$X=X-X=X$X$X$XoXe.oX#X#X$X%X=X#XoXe.#X$X%X-X;X%X#X$X3X6X1X%X-X%X#Xe.#X#X$X$X$XoX$X#X$X%X-X2X=X%X#X$X%X%X",
";X-XoXoXoX#Xe.oXoXe.e.oX$X#X$X#X$X$X%X=X#Xe.#X#X$XoX$X$X$XoX$X$X$X%X%X$X#X$X%X-X$X#X$X$X%X#X#X#X%X-X;X-X$X#X$X$X4X-XoX#XoX$X%X;X",
"-X=XoXoXoX#X#XoXoXe.e.$X$X#X$X#X$X%X-X-X#Xr.#X#X#X$X$X%X$X$X$X$X$X$X#X$X$X%X%X#X#X#X%X%X%X#X#X$X;X;X;X=X$XoX$X$X1X$XoX#X#X#X;X1X"
};
