/* XPM */
static char *result[] = {
/* columns rows colors chars-per-pixel */
"64 64 39 1 ",
"  c #01CCFE",
". c #0ACEFD",
"X c #12CFFD",
"o c #07D0FC",
"O c #0CD1FD",
"+ c #13D1FC",
"@ c #1CD2FC",
"# c #24D4FC",
"$ c #2BD5FD",
"% c #2CD8FA",
"& c #34D6FD",
"* c #3AD7FE",
"= c #35D9FD",
"- c #3CD9FC",
"; c #43D7FB",
": c #44DAFC",
"> c #4CDCFB",
", c #53DCFC",
"< c #59DFFC",
"1 c #68DFF7",
"2 c #63DFFB",
"3 c #59E0F7",
"4 c #54E1FC",
"5 c #5CE1FC",
"6 c #64E3FD",
"7 c #69E2FC",
"8 c #7BE1F7",
"9 c #73E3FC",
"0 c #7BE4FA",
"q c #72EAFE",
"w c #81E5F5",
"e c #88E8F4",
"r c #84E6FA",
"t c #8BE6FA",
"y c #86E9FE",
"u c #89E9FB",
"i c #92E9FA",
"p c #9AECFB",
"a c None",
/* pixels */
"aaaaaaaaaaaaaaaaaaaaaaaaaaaaaaaaaaaaaaaaaaaaaaaaaaaaaaaaaaaaaaaa",
"aaaaaaaaaaaaaaaaaaaaaaaaaaaaaaaaaaaaaaaaaaaaaaaaaaaaaaaaaaaaaaaa",
"aaaaaaaaaaaaaaaaaaaaaaaaaaaaaaaaaaaaaaaaaaaaaaaaaaaaaaaaaaaaaaaa",
"aaaaaaaaaaaaaaaaaaaaaaaaaaaaaaaaaaaaaaaaaaaaaaaaaaaaaaaaaaaaaaaa",
"aaaaaaaaaaaaaaaaaaaaaaaaaaaaaaaaaaaaaaaaaaaaaaaaaaaaaaaaaaaaaaaa",
"aaaaaaaaaaaaaaaaaaaaaaaaaaaaaaaaaaaaaaaaaaaaaaaaaaaaaaaaaaaaaaaa",
"aaaaaaaaaaaaaaaaaaaaaaaaaaaaaaaaaaaaaaaaaaaaaaaaaaaaaaaaaaaaaaaa",
"aaaaaaaaaaaaaaaaaaaaaaaaaaaaaa-;aaaaaaaaaaaaaaaaaaaaaaaaaaaaaaaa",
"aaaaaaaaaaaaaaaaaaaaaaaaaaaaaao+aaaaaaaaaaaaaaaaaaaaaaaaaaaaaaaa",
"aaaaaaaaaaaaaaaaaaaaaaaaaaaaaaaaaaaaaaaaaaaaaaaaaaaaaaaaaaaaaaaa",
"aaaaaaaaaaaaaaaaaaaaaaaaaaaa $aa@ aaaaaaaaaaaaaaaaaaaaaaaaaaaaaa",
"aaaaaaaaaaaaaaaaaaaaaaaaaaaaO=aa#.aaaaaaaaaaaaaaaaaaaaaaaaaaaaaa",
"aaaaaaaaaaaaaaaaaaaaaa aaaaa+-aa# aaaaa aaaaaaaaaaaaaaaaaaaaaaaa",
"aaaaaaaaaaaaaaaaaaaaaa aaaaaaaaaaaaaaa& aaaaaaaaaaaaaaaaaaaaaaaa",
"aaaaaaaaaaaaaaaaaaaa      o>aa.+aa=       aaaaaaaaaaaaaaaaaaaaaa",
"aaaaaaaaaaaaaaaaaaaaa# @,&o$aa.Oaa# *,@ $,aaaaaaaaaaaaaaaaaaaaaa",
"aaaaaaaaaaaaaaaaaaaaaa aaa          aa, aaaaaaaaaaaaaaaaaaaaaaaa",
"aaaaaaaaaaaaaaaaaaaaaa aaa=&&$  $&&*aa5 aaaaaaaaaaaaaaaaaaaaaaaa",
"aaaaaaaaaaaaa#@aa;.aaa aaaaaaa.+aaaaaa< aaa ,aaX%aaaaaaaaaaaaaaa",
"aaaaaaaaaaaaa+.aa& aa9 7aaaaaa.+aaaaaa, aaa :aa #aaaaaaaaaaaaaaa",
"aaaaaaaaaaa#@  +@  aa9 7aaaaaao+aaaaaa< aaa .@X  @$aaaaaaaaaaaaa",
"aaaaaaaaaaa+.  ..  aa7 7aaaaaao+aaaaaa< aaa  ..  .@aaaaaaaaaaaaa",
"aaaaaaaaaaaaa+.aa$ @&X 2aaaaaaO+aaaaaa< X&@ &aa.@aaaaaaaaaaaaaaa",
"aaaaaaaaaaaaa@+aa-     7aaaaaao+aaaaaa,     >aaO#aaaaaaaaaaaaaaa",
"aaaaaaaaaaaaaaaaaaa&   @:yaaaaO+aaaa0:@   -aaaaaaaaaaaaaaaaaaaaa",
"aaaaaaaaaaaaaaaaaaa,     ,aaaaO+aaaa:     <aaaaaaaaaaaaaaaaaaaaa",
"aaaaaaaaaaaaaaaa6660aaa> #666>oo4666@ ,aut0q75yaaaaaaaaaaaaaaaaa",
"aaaaaaaaaaaaaaa=   aaaau              aaaapOO =aaaaaaaaaaaaaaaaa",
"aaaaaaaaaaaiaaa# >7aaaaa667>oO55O 4766aaaaa95 @aaaaaaaaaaaaaaaaa",
"aaaaaaaaaaa OOo Oaaaaaaaaaaa %aa#oaaaaaaaaaaa     .aaaaaaaaaaaaa",
"aaaaaaaaaaa>:::O aaaaaaaaaa9 @aa+.aaaaaaaaaa0 O:::,aaaaaaaaaaaaa",
"aaaaaaaaaaaaaaa$  oaaaau      o       aaaai   =aaaaaaaaaaaaaaaaa",
"aaaaaaaaaaaaaaa>$#$aaaa7 .#$$@  @$$#. aaaar$$#<aaaaaaaaaaaaaaaaa",
"aaaaaaaaaaaaaaaaaaa,.X+. >aaaaO+aaaa: .X+.<aaaaaaaaaaaaaaaaaaaaa",
"aaaaaaaaaaaaaaaaaaa:   .X6aaaa.Oaaaa,O    ,aaaaaaaaaaaaaaaaaaaaa",
"aaaaaaaaaaaaa=&aa,@.   <aaaaaaO+aaaaaa>   O@<aa$:aaaaaaaaaaaaaaa",
"aaaaaaaaaaaaa+.aa&     7aaaaaa.+aaaaaa<  .  :aa.#aaaaaaaaaaaaaaa",
"aaaaaaaaaaa:&  &=. 0a, 7aaaaaa.+aaaaaa< aaa X=$ .a:aaaaaaaaaaaaa",
"aaaaaaaaaaao       aa9 7aaaaaa.+aaaaaa< aaa       Oaaaaaaaaaaaaa",
"aaaaaaaaaaaaa+.aa# aa9 7aaaaaao+aaaaaa, aaa $aa +aaaaaaaaaaaaaaa",
"aaaaaaaaaaaaa+.aa= aa9 7aaaaaa.+aaaaaa< aaa >aa #aaaaaaaaaaaaaaa",
"aaaaaaaaaaaaaaaaap0aa9 7aa0we1 .1a80aa, aaaaaaaaaaaaaaaaaaaaaaaa",
"aaaaaaaaaaaaaaaaaaaaa9 7aa.+OO.     aa< aaaaaaaaaaaaaaaaaaaaaaaa",
"aaaaaaaaaaaaaaaaaaaaa: -a<.%73o.>aX aa& aaaaaaaaaaaaaaaaaaaaaaaa",
"aaaaaaaaaaaaaaaaaaa>       ,aa.Oaa&       aaaaaaaaaaaaaaaaaaaaaa",
"aaaaaaaaaaaaaaaaaaaa;@ @::;<aa;>aa<;;;@ #aaaaaaaaaaaaaaaaaaaaaaa",
"aaaaaaaaaaaaaaaaaaaaaa aaaaa.$aa$oaaaaa aaaaaaaaaaaaaaaaaaaaaaaa",
"aaaaaaaaaaaaaaaaaaaaaa#aaaaao$aa#.aaaaa#aaaaaaaaaaaaaaaaaaaaaaaa",
"aaaaaaaaaaaaaaaaaaaaaaaaaaaa $aa# aaaaaaaaaaaaaaaaaaaaaaaaaaaaaa",
"aaaaaaaaaaaaaaaaaaaaaaaaaaaa@-aa&#aaaaaaaaaaaaaaaaaaaaaaaaaaaaaa",
"aaaaaaaaaaaaaaaaaaaaaaaaaaaaaa$%aaaaaaaaaaaaaaaaaaaaaaaaaaaaaaaa",
"aaaaaaaaaaaaaaaaaaaaaaaaaaaaaaX@aaaaaaaaaaaaaaaaaaaaaaaaaaaaaaaa",
"aaaaaaaaaaaaaaaaaaaaaaaaaaaaaaaaaaaaaaaaaaaaaaaaaaaaaaaaaaaaaaaa",
"aaaaaaaaaaaaaaaaaaaaaaaaaaaaaaaaaaaaaaaaaaaaaaaaaaaaaaaaaaaaaaaa",
"aaaaaaaaaaaaaaaaaaaaaaaaaaaaaaaaaaaaaaaaaaaaaaaaaaaaaaaaaaaaaaaa",
"aaaaaaaaaaaaaaaaaaaaaaaaaaaaaaaaaaaaaaaaaaaaaaaaaaaaaaaaaaaaaaaa",
"aaaaaaaaaaaaaaaaaaaaaaaaaaaaaaaaaaaaaaaaaaaaaaaaaaaaaaaaaaaaaaaa",
"aaaaaaaaaaaaaaaaaaaaaaaaaaaaaaaaaaaaaaaaaaaaaaaaaaaaaaaaaaaaaaaa",
"aaaaaaaaaaaaaaaaaaaaaaaaaaaaaaaaaaaaaaaaaaaaaaaaaaaaaaaaaaaaaaaa",
"aaaaaaaaaaaaaaaaaaaaaaaaaaaaaaaaaaaaaaaaaaaaaaaaaaaaaaaaaaaaaaaa",
"aaaaaaaaaaaaaaaaaaaaaaaaaaaaaaaaaaaaaaaaaaaaaaaaaaaaaaaaaaaaaaaa",
"aaaaaaaaaaaaaaaaaaaaaaaaaaaaaaaaaaaaaaaaaaaaaaaaaaaaaaaaaaaaaaaa",
"aaaaaaaaaaaaaaaaaaaaaaaaaaaaaaaaaaaaaaaaaaaaaaaaaaaaaaaaaaaaaaaa",
"aaaaaaaaaaaaaaaaaaaaaaaaaaaaaaaaaaaaaaaaaaaaaaaaaaaaaaaaaaaaaaaa"
};
