/* XPM */
static char *result[] = {
/* columns rows colors chars-per-pixel */
"64 64 240 2 ",
"   c #163A15",
".  c #4B391D",
"X  c #5C3429",
"o  c #67352B",
"O  c #68342D",
"+  c #733B33",
"@  c #0F4E02",
"#  c #185709",
"$  c #194A17",
"%  c #1A5516",
"&  c #1B531B",
"*  c #1E5C1C",
"=  c #354B16",
"-  c #295917",
";  c #215E1D",
":  c #1C6115",
">  c #1E651B",
",  c #296A13",
"<  c #22631D",
"1  c #286618",
"2  c #236A1D",
"3  c #2A6B1D",
"4  c #26711D",
"5  c #2D731D",
"6  c #2D7A1B",
"7  c #32751D",
"8  c #347A1C",
"9  c #387818",
"0  c #397D1B",
"q  c #1C4D21",
"w  c #1D5521",
"e  c #245926",
"r  c #305528",
"t  c #295837",
"y  c #236323",
"u  c #286825",
"i  c #296A28",
"p  c #336A25",
"a  c #2C7222",
"s  c #297124",
"d  c #327624",
"f  c #357A23",
"g  c #3B7B23",
"h  c #387429",
"j  c #3B7C2B",
"k  c #2A6535",
"l  c #356935",
"z  c #3A7636",
"x  c #4A4828",
"c  c #7B4437",
"v  c #437E2B",
"b  c #457A39",
"n  c #335B4B",
"m  c #366848",
"M  c #3A7747",
"N  c #3B6B56",
"B  c #6F5B5F",
"V  c #477848",
"C  c #456F52",
"Z  c #487455",
"A  c #456B65",
"S  c #487567",
"D  c #5A7E67",
"F  c #567B77",
"G  c #84473D",
"H  c #884D43",
"J  c #8C574C",
"K  c #99564A",
"L  c #A25C50",
"P  c #89777C",
"I  c #37861A",
"U  c #3B821C",
"Y  c #3E8322",
"T  c #3B8429",
"R  c #3E8231",
"E  c #438719",
"W  c #438B1B",
"Q  c #49961B",
"!  c #519D1D",
"~  c #4EA11B",
"^  c #54A41C",
"/  c #57AA1C",
"(  c #5BAD1D",
")  c #5EB11E",
"_  c #428623",
"`  c #448B22",
"'  c #4B8C25",
"]  c #46832C",
"[  c #508E2F",
"{  c #4B9322",
"}  c #4C9624",
"|  c #529C22",
" . c #549A26",
".. c #488836",
"X. c #548937",
"o. c #599939",
"O. c #58A324",
"+. c #55A230",
"@. c #65AE34",
"#. c #4D8749",
"$. c #558948",
"%. c #478658",
"&. c #588758",
"*. c #559752",
"=. c #649649",
"-. c #699956",
";. c #6FB248",
":. c #6AA853",
">. c #498868",
",. c #5A8967",
"<. c #539669",
"1. c #4B8F76",
"2. c #5B847A",
"3. c #57987C",
"4. c #658C68",
"5. c #6B996B",
"6. c #688978",
"7. c #689378",
"8. c #749B78",
"9. c #73A96D",
"0. c #68A67A",
"q. c #8EC37A",
"w. c #557A86",
"e. c #797A88",
"r. c #8D7C82",
"t. c #5E8384",
"y. c #569B8C",
"u. c #668786",
"i. c #6A9488",
"p. c #749A8A",
"a. c #698B96",
"s. c #6E9191",
"d. c #769696",
"f. c #5FA68B",
"g. c #5CA197",
"h. c #68A588",
"j. c #78A689",
"k. c #61A49A",
"l. c #67B094",
"z. c #78B194",
"x. c #7A9BAA",
"c. c #789CB3",
"v. c #5FA4AA",
"b. c #65A9AA",
"n. c #6FB1B6",
"m. c #72B5C9",
"M. c #74BEDA",
"N. c #7CC4D4",
"B. c #7BC7E9",
"V. c #7BCAF8",
"C. c #7DCCFE",
"Z. c #7FD0FE",
"A. c #908A93",
"S. c #8BAC90",
"D. c #819BAB",
"F. c #889EAF",
"G. c #84A4A8",
"H. c #99B7AB",
"J. c #8AA9B6",
"K. c #94AFB8",
"L. c #A4BEBC",
"P. c #A2C59D",
"I. c #ABCDAD",
"U. c #A9C5B8",
"Y. c #B4C9B9",
"T. c #8FB5CC",
"R. c #9CB9C7",
"E. c #A5BBC8",
"W. c #87BEE1",
"Q. c #84C9DB",
"!. c #91C4D2",
"~. c #ACC4CB",
"^. c #B9C7CA",
"/. c #B3D6CC",
"(. c #ACC6D5",
"). c #B3CAD6",
"_. c #BCCEDA",
"`. c #BCD2DB",
"'. c #8AC9E7",
"]. c #83CCEB",
"[. c #91CCE9",
"{. c #95D4EE",
"}. c #87CDF6",
"|. c #82CFFE",
" X c #88D3F6",
".X c #85D2FE",
"XX c #8BD5FE",
"oX c #8ED9FE",
"OX c #96D5F5",
"+X c #91D6FD",
"@X c #94D9FE",
"#X c #9BDBFD",
"$X c #B8D7E4",
"%X c #A8DAF0",
"&X c #A8DAF6",
"*X c #A3DEFC",
"=X c #A9DEFB",
"-X c #9FE0FC",
";X c #BBE3EF",
":X c #AEE1F0",
">X c #A4E1FD",
",X c #ABE1FC",
"<X c #B3E4FA",
"1X c #BAE6F8",
"2X c #BCE5FA",
"3X c #C5D7CB",
"4X c #C9D3D4",
"5X c #C9D8D9",
"6X c #CDE4D3",
"7X c #C9E0D6",
"8X c #C6D9E4",
"9X c #CBDCE3",
"0X c #D4DEE5",
"qX c #CCE2E9",
"wX c #D8E5EB",
"eX c #C4E6F6",
"rX c #CDECF7",
"tX c #C4EAFA",
"yX c #CCEDF9",
"uX c #D3EBF6",
"iX c #DCECF3",
"pX c #D4EEFA",
"aX c #DAEFF8",
"sX c #DCF2F6",
"dX c #E3E8EC",
"fX c #E3F1EA",
"gX c #E7EEF2",
"hX c #E5F4F5",
"jX c #ECF5F6",
"kX c #E5F8F7",
"lX c #EAF8F7",
"zX c #E5F4F9",
"xX c #EBF6F9",
"cX c #E6F9F8",
"vX c #EDF9F9",
"bX c #F2F6F6",
"nX c #F3F9F7",
"mX c #F2F7F8",
"MX c #F3FAFA",
"NX c #FAFBFC",
/* pixels */
"iXhXnXNXNXlXMXvXhXkXkXvXhXhXjXhXlXbXnXkXlXvXjXvXvXNXMXcXcXlXlXlXhXkXvXNXMXnXbXjXjXjXjXbXnXhXvXMXvXcXcXvXxXkXcXMXvXvXMXMXcXkXhXcX",
"iXsXMXNXNXhXnXvXxXkXlXvXlXlXjXjXlXnXnXkXxXMXlXlXMXMXvXcXcXvXvXvXhXhXvXNXNXnXnXjXjXhXjXbXMXMXvXMXcXvXvXNXNXvXvXvXNXMXxXxXvXMXvXvX",
"sXhXMXMXNXjXMXlXhXxXlXvXhXjXjXhXlXjXlXlXvXvXxXvXvXMXvXcXlXvXlXlXkXlXvXMXnXMXbXhXjXhXjXhXvXvXvXMXcXvXNXMXNXNXlXvXNXMXcXkXbXNXMXvX",
"hXvXlXMXnXlXnXnXbXjXjXlXfXjXbXhXlXhXhXvXNXvXlXvXMXMXvXcXvXnXkXvXjXnXvXlXvXvXhXhXjXbXjXfXhXMXvXMXvXvXNXvXvXNXcXlXvXNXvXkXvXnXvXxX",
"lXlXlXvXmXjXnXhXjXjXbXjXhXjXmXvXlXkXlXbXnXvXlXNXNXvXvXvXMXNXlXvXMXmXxXxXMXvXMXMXlXjXjXjXMXMXvXvXcXvXNXMXlXlXhXnXNXMXlXhXlXMXvXcX",
"lXjXhXhXhXjXlXfXjXgXbXjXjXnXjXMXvXlXnXlXnXvXcXnXNXMXlXMXMXMXlXvXMXvXxXmXMXvXMXlXMXjXhXjXMXMXvXvXvXvXNXMXlXcXhXjXvXMXlXcXvXMXvXvX",
"bXjXhXhXhXjXjXhXhXhXjXbXvXhXhXvXnXnXNXlXMXvXcXlXcXxXxXlXMXvXcXvXvXMXvXNXNXvXkXcXMXhXhXhXMXNXMXMXMXMXnXmXvXjXhXhXhXhXvXjXMXlXMXMX",
"bXbXjXlXhXjXbXjXjXhXhXbXjXhXhXkXnXnXnXfX0X3XY.I.U.~._.9XsXlXlXcXMXnXvXvXMXMXvXxXcXhXvXMXxXxXMXvXvXvXmXbXxXhXhXhXhXnXhXlXlXlXhXlX",
"jXbXbXjXhXjXbXjXhXbXxXbXhXhXhXhXvXfXY.8.#.z s p i V V ,.S.U.5XgXvXmXMXxXvXMXNXvXvXvXvXMXhXhXvXhXhXxXjXhXjXjXhXhXjXnXvXvXvXvXjXxX",
"bXbXjXhXhXbXjXjXgXbXmXgXiXhXjXlXvX7X9.#.#.&.5.5.#.h 3 4 p b 5.H.5XhXMXxXcXvXNXMXxXvXvXvXjXhXhXhXhXhXgXsXhXbXNXjXvXnXmXMXMXvXhXxX",
"jXeXiXjX&XaX1XiX*X2XuX#X#XrX1XpXvX:X!.!./.$X;X$X5XS.z > 5 9 E X.8.U.iXvXvXvXnXeX#XaX<X#XhXbXsX<X<XeXeX1XeXuXbXjX<XzXxXzX<X*X2XMX",
"uX=XiXbX1X2X2XuXXX&XuX#X*XaXyX1XkXrX1X1XpX,XrX:XyX;Xj.s 1 6 U W ' 5.U.wXxXzXzXpX@XyX*X.XtXxXpX,X=X2X&X*X2XeXhXhX&XtXpXzX<XXX,XzX",
"*X+XuXgXxX*XuXrX X,XhX<XeXnXvX=XpXMXlXlXpX,XkX1X.X X/.#.2 2 6 U Q ! 9.~.0XzXsXvX<XrX=X.X#XuX1X<X<XeXoXZ.2X<XeXsX<X<X,XsXyXoX>XrX",
"&X2X&X#XuXOXXX&XeX<XrX+X+XuXyXpX<XpX<XpX>X,XvXyX.X<X:X0.s 4 4 I E !  .j.R.8XgXsXtX<X*X@X+X,XrX&XeX<X:XZ.oXXXOXuX1XpX>X@X#X1XoX<X",
"+X&X+X|.<X.XC.@X,X,X<XOXXX,X,X,X+X<X#X1XoX#X1X<XoX<X%X0.s s 4 s E Q ^ o.8.K.).uXaX2X#X@X.X*X<X*X,XOX#X.X.XXXXX<X,X1X@XXX@X:X@X-X",
"V.V.|.|.XX.X.XXX X.X#X,X+XXX.X|. XoX@X-XoXoXoX@X#X-X{.0.j 4 2 4 I W ~ ^  .=.h.R.qXaXeX#X.X@XXXXX XZ.Z..X.XXX.XXXXXoX.XoXoX#X#XoX",
"V.C.XXXXXX|.XXXX.X.X.X@XXX.XZ.Z..X@X@X+X@XoXXX-X-XoXB.0.z s s 4 I I I / ( ( +.5.E.wXzXrX&XXX|..X.X.X|.XX.XXXXXoXXXXXXXXX@X+X+XoX",
"XXXX}.|.|.|.XX|..XZ..XXXXX.X.X+X+X+XXX.XoXoXXX@X+XZ.].:.R d 2 4 I I ~ ~ ( ) ( @.G.(.iXxXgXeX&X.X.XC..X.X.XXX+X@XXXXX.XXX+XXXoXoX",
"*X+X|.|.C.XX+X.XXX.X.XXX.XZ.XX-X@XXX.X.XXXXXXX.X.X.XQ.-.] d s 4 4 I I ~ ^ ( ) @.i.T.).iXgXzXqX#X|.V..X.X.XXXXX#X+X.X.XXX.X.X.X.X",
"|.|.|.|.C.XX=X+XXXXXXXXX.X.X-X@XXXXX.X.X.X.X.X|.XX+Xn.o.R d s 4 4 s I Q ~ / ) ) *.a.T.E.).).(.{.C.C..X.X.XoX#XoXXX.X|..X.X.X.X.X",
"|.C.C.|.XX#X#XXXXX@X#X+XXX+X#XXX.XXX|.|..X.X.XXX.X}.j.[ R s 4 4 4 4 I I ~ O.) ) O.$.&.F 2.F ,.x.B.V.C.|..X@X#XoX.X.XZ..X.X|.C..X",
"C.C.|.|.+X=XXXXXXX>X>X@XoX#X@X.X.X.X.X.X.XXX+X#X XQ.=...j s 4 2 4 I I } +.@.;.;.@.O.` g p u p b 5.n.N.|.XX#X+X.X.XZ.Z..XXX.X.XXX",
"C.|.XX|.|.|.XXXX-X@X+X.XZ.XXXXXXXX.X.XXX@X#X#XXX}.z.X.j d s s 2 4 I T 9.P.3X3X/.P.9.[ _ T d d j ..o.0.].XXXX.XXX.XZ..X@X.X.XXX+X",
"+X+XXX|.C.|..XXX@X+X.X.X.XXX+XXX.X.X.X#X*X#XoXXXN.=...f s s > 2 4 T 0.7XcXfX/.).~.G.V 7 8 a 4 d f #.h.V..X.X.XXXZ.Z.oX@X.XoX#X>X",
"#X#X|.V.C.C.|..XXXXX.X.XXXoX+XXX.X.XXX>X*X@X.XB.5.[ j d u 2 2 d *.z.7XcXiX).x.7.7.&.h 3 5 5 u 2 k g.{.|..X|..X.X.X.X-XXXZ.+X>X>X",
"+X|.V.V.C..XXXXXXX.X.XXXoXoXXX.XC..X#X<X@XXX].j.X.] d u 2 2 M j.U./.8XqX`.T.,.W ' E 0 h l z h m S c.{.#X+X|.|.|.oX.X.XXXoX-X,X+X",
"|.V.V.V.|.XXXXXXXXXXXX+X@XoX.X.X.XXX+X#X+X].j.=.] h a 3 > i 8.~.J.p.i.d.s.2.l E Q W U j S F 6.d.D.F.T.+X.X|.C.|..XXXoX@XoX@X#XoX",
"V.V.|.|..X+XXXXXXXXX+X+X+X.X.XC.XXoX.XXX].z.=.X.v d u < > u ,.x.Z s j z v h 9 0 U I 9 b i.F.K.E._.8X_.&XXX|.|.|..XXX@X@XoX.XXX.X",
"V.|.#X@X+XXX|..X.X#X,X@XXXXX|.|..X.XXX'.z.=.X.-.5.&.l * ; % k l e 3 5 8 9 9 0 9 9 v 5.H.)._.8XiXgXxXxXaX2X#XC.C.XX.X.X.X.XXXoXoX",
"|.XX@X+XXX|..XXX@X#X#X.X.X|..XXX.X.X].S.=.=.P.0X5XE.t.q $ % > > k l 7 , 7 9 j $.S.Y.9XiXxXgXxXvXvXvXMXxXzXaX2X+XXXXXXX.X.XXX+X#X",
"|.@X+X.X.X|..X#X#X-X.X|..X|.XXXX.X.X].h.] =./.nXqXJ.A     % : : k A Z b &.S.^.7X~.G.p.R.0XxXMXvXvXgXqX$X8X8XuXpX,X+X.XXX.XoX#X>X",
"|..XXX.XXXXX@X#X+X.XZ..X.X.X*X#X.X.X#X{.z.b V 6X8Xu.    $ - l V 8.L._.5XwXzX`.d.V h ..s.R.wXgXaXqX).G.6.,.s.R.5XeX#X.X.XXX#X>X>X",
"C..X.X.X.X+XXXXX.XZ..XXXoX#X-XoX XoX%XH.:.[ -.6X4XF = v p l F D.E.9XwX9X(.G.F k g _ ..u.c.R.).(.K.7.v E Q T ,.J.(.{.XXXX#X,X,X#X",
"|..X.X.X.X+XXX.XZ.Z..XoX+X,X@X XB.N.9.:.9.q.3X9Xp.b ' ' ' g b Z F u.s.w.A t e 7 g _ ..%.2.a.d.7.Z _ Q ^ ~ I T 3.J.W.}..X#X,X*X+X",
".XZ.C.C..X.X.X.X.XXX.XoX+X@X].N.0.+.:.I.fXwX8XJ.$. . .[ ' v 0 u e w w % % 1 7 f g g _ _ v v ] E E Q E I I I I %.m.[.|.|.oX.XC..X",
"C.C.C.C.|..X.X.X.XoX XoXoXQ.l.o.Q ^ :.P.I.H.j.$.E  .{ ' ' 0 d s 2 > > > 2 3 a d g h h _ ` ` E 0 9 , # # @ # # %.Q.XX|.XXXX@XXXC.",
"C.Z.C..X.XXXXXXXoXXXXXXXQ.1.f I I / ( @.@.o. .! | |  .` _ h d 5 2 > > 2 2 s 3 a h b C v 9 , % $ @ $ % @ @ @ # 1.B..X.XXXXX-X@X.X",
".XC..XXXXX+X#X+XXX.X.XXXy.# # , I I ~ O.( ( O.O.|  .' ' h l d 5 2 > > > 2 2 s 5 p V F D e   $ $ $ % & # @ # M n. XoX+XXXXX@X#X@X",
".X.X.XXX@XXX+XXXXXXXXX.Xg.* @ % l m z ` { ! ^ | | Q ' v M z 7 p 2 > 2 2 2 3 1 p V 8.E.E.F r $ = - & % * i 1.m.V.+X@X+XXXXX+X#X#X",
".X.XoX@X#XXX.X.X.XXXXXXXB.b.,.F s.a.t.2.Z b v 0 0 9 v Z S l 3 < 2 2 , p z V 5.S.Y.4X0X_.A.m - 1 1 < 2 z i.]..XXX@XoX+XXXXX+X#X#X",
"|.XX#X>X#XoX.X.XXXXXXX|.|.OX_.^.E.E.E.K.A.a.e.u.6.4.4.s.e.V b l V 4.8.S.Y.3X4X0X9X_.E.s.C p 9 E W U 5 %.E.yX2X@XXXXX*X@X#X#XXX.X",
"+X#X#X>X+X.XZ.C.XXXXXX+X=XiXgXgXdXdX0X4X9X4X4X^.E.4X3X4X4X3X4X4X4X6XdXdX^.G.A.i.u.D Z l 9 E ! ! / ^ I T &.U.sXtX#X.X+X+X+X+XXX.X",
"#X*X#X@XXXC..X|..X.XXX=XzXNXNXmXNXbXbXbXbXbXdX0XdXdXbX9XE.E.4X0XdXgX0XK.C = u p p g g E Q ^ / ) ) @.;.} Y %.).sXpX=XXX+X+XXXXXXX",
"<X*X@X.X.X.X.X.XXXXX@X%XwX0X4X_.gXNXNXNXNXNXNXbXbXNXdXF.A t n w.F.K.F.A q 3 9 U E { ! ^ / ( ( ( ;.6XfXI...R i.).iXuX&X@X@XXX.XoX",
"@XoXXX.XZ..XXXXXXX+X#X[.J.u.F x.0XNXNXbXdXbXNXNXNXNX9Xw.w * % w t n n $ ; 7 g _ ' ! } ! ^ ^ O.) q.9X8XK.[ Y #.a.T.R.[. XoX.XXX#X",
"oXoXXXZ..X.XXXXXoX+X@X}.2.q r 6._.wX9XE.E.E.0XgXmXgX4Xw.k u y w * q % % 3 d 0 _ ' Q { ! ^ O.^ / ;.z.i.X.{ I j V i.!.OXoXXX.XoX-X",
"oXoX.X.XXXXXXXXXoXXXXXB.#.- e w.E.E.F.F S F F.E.8X5XE.a.m < y > e > e < 3 7 8 Y E ` Q { { ^ O.O.O. .| O.O.*.<.<.b.%X@XoXZ.Z.@X#X",
"XX.X.X.XXXXXoX@XoX.XZ.n.h 1 t F x.a.m q e t A a.J.T.c.w.k y y y w > > < 1 d g 0 _ _ ` ` ` } Q | | O.| { ..*.N. X@X@XoXoXoX X.XoX",
"XXXX.XXXXXoXoX+X.XXX.Xf.5 < e m A n t y y y y n S w.S n w y y > < w ; < 3 a f Y ` I I R #.[ ! } { } ..%.y.m. X@X@XoX.X.X.X.XZ. X",
"XX+XXX.XXXXXXX.X.X.X.X<.3 p k & w w >.M y i i y t w w w * < ; w > * ; < 2 3 7 8 Y T I *.f.*.] ..*.3.v.N.V.|..X.XXX.XZ..X.X.X.X.X",
"XX@XXX.XXXXXXX.X.X.XoX<.5 #.%.* * m y.M i i i i y y w y w y * < w * * < < 3 7 7 I 6 6 %.m.n.y.b.N.B.Z.V.|..XXXXXXX.X.XXX.XZ..XoX",
"XX+X.XXX+XXX.X.X|..XXXk.z <.v.u > M y.N y i i i i i i y y y y e ; < < < < 1 1 3 z %.1.v.B.V.}..XXXZ.Z.C..XXXXXXX.XXXoXoX.XZ..XoX",
"XXXX.XXX#XXX.X.X|.XXXX].n.n.Q.3.Z >.v.1.k y y e y y < y 2 u e - - - - = = = . x t.M.B.V..X.X+XXXoXXX.X|.XXXXXX.XXX+X+X@X|..XXXXX",
"XX.X.X#X+X.X.XXXXX@X.X|..X@X@XB.M.M.V.M.m.v.b.k.g.g.g.f.k.2.x . . X . c + c c G P W.Z..XXX#X=X#XXXXXXX+XXXXX.X.XXX*X*XXXC.XXXXXX",
".X.XXX@XXX.XXX.XXX+X.X|.XX#X+X.X|.XX|.|.V.V.}.OXoXOX XOX{.c.X X o + c G K K K K J A.'..X+X>X>X@XXXXXXXXXXX.X.X+X@X,X#X.X.XXX+XXX",
".X.X@X+XXXoXoX.X.X.X|.|.XXoXXX.XXX+XXXV.V.|.+X@X#X@X+X@X'.e.X X o + G G K L L K H J A.'.#X*X@X+XXX.X.X.X.X.X@X#X*X@X.X.X@X+XXXXX",
".XXXXXXXXXoXoXXX.X.X.X#X#XXX.XXX+XXX|.C.C.|..XXX@X=X=X+Xm.c X O o + c G K K K L K G H A.T.+XXXXXXX.X.X.X.XXX@X#XXX.XC..XoXXXXX.X",
".X.X.X.X+X@XXX.XXX.XXX@X+X.X.XXXXX+X@XXX|.|.XXXX@X=X*XW.B O O O + + G H K K K L L L H H r.Q.XX.XXX+X.X.XXX+X+XXX.X.X.XXXXXoX.XZ.",
".XC.C.XX+X#X.X.X.X.X.X.X.X.XXX|.XX,X,X@X|.XX@X+X@X#X|.OX[.K.A.d.r.P P P r.r.r.A.A.A.F.T.!.XX.X|.XX#XoX.X+X+X.X|.C..XoXoXXXoX.X.X",
".XZ..XXXXX.X.XXX.XC.|.XX.X.XXX.X@X,X#XXX|.XX.X.XXX|.+X+X+X+X.XC.|.}.}.*X}.}.+X&X&X*X<X>X+X.X|.|.XX+X.X|..X.X|.|..X.X>X+XXXXX.X.X",
".X.X.XXXXX.X.X.X.XC..X.XXXXX+XXX@X*XXX.X|..X.X.X|..X+X+X.X.XZ..XXX+X#X#XXXXX#X=X,X#X>X#X.X.XZ..XXXXX.X.X.X.X.XXXXX#X*X+X.X.XXXoX",
"XXXXXX.XXXXXC..X|.|.|..XXX@X#X@XXXXXXX.X.XZ..X.X.X+XoXXX.X.X.XXXoX@X#XXX|.XX=X<X*XXX+XoX.X|.Z..XXXXX.X.X.X.XXXXX@X,X+X.X.X.XXXoX",
"#X@X.X|.|..XC.|.|.|.C.|.XXXX.XXXXXXXoX+XC.C..X.X.X.XXXXXXX.X.XoXoXXX+XXX.XXX+X+XoX.XXXXXXXXXZ..XXX#X#X@X+X.XXX+X,X@X.X.X.XXXXX#X",
"@X+X|.|.|..X|.|.|.C.C..XXX.X.X.XXXXX@X@XZ..X.X.XXXXXXXXXXX.XXXXXXXXX.XXXXX+XXX.X.X.XXXoXXX.X.XXX#X#X#X@X.X.X.XXX#XXX|..X.X.X#X>X"
};
