/* XPM */
static char *result[] = {
/* columns rows colors chars-per-pixel */
"64 64 63 1 ",
"  c #77C7FE",
". c #78C7FE",
"X c #7DCCFE",
"o c #7ED1F6",
"O c #7FD1FE",
"+ c #84CCF7",
"@ c #8ACEF6",
"# c #82CEFE",
"$ c #89CFFA",
"% c #84D3F7",
"& c #8DD1F6",
"* c #85D1FE",
"= c #8BD4FE",
"- c #8DD9FE",
"; c #93D3F6",
": c #9AD6F6",
"> c #92D6FD",
", c #9AD6FA",
"< c #94D9FD",
"1 c #9BDBFD",
"2 c #A2D7F7",
"3 c #A1D9F7",
"4 c #ABDCF7",
"5 c #A3DDFC",
"6 c #AADEFB",
"7 c #B1DFF8",
"8 c #AFE2F7",
"9 c #A6E0FD",
"0 c #ABE1FC",
"q c #B6E2F7",
"w c #BDE4F7",
"e c #B9EAF7",
"r c #B2E3FA",
"t c #BBE5F9",
"y c #BBE8F9",
"u c #C2E7F6",
"i c #C5E9F7",
"p c #CCEBF7",
"a c #C2E6F8",
"s c #C3E9FA",
"d c #CBECFA",
"f c #D4ECF6",
"g c #DAEDF4",
"h c #D4EDF9",
"j c #DDEFF8",
"k c #CFF0F7",
"l c #DDF3F4",
"z c #D3F1FA",
"x c #DCF2F9",
"c c #E4F5F5",
"v c #EBF5F6",
"b c #E5F9F7",
"n c #EAF8F7",
"m c #E5F6F9",
"M c #EBF7F9",
"N c #E5F9F8",
"B c #ECF9F9",
"V c #F2F6F6",
"C c #F2F9F7",
"Z c #F9FAF7",
"A c #F2F7F8",
"S c #F3FAFA",
"D c #F9FCFC",
/* pixels */
"glZZDcBBbbNnNnvcbACnnBMnBSSmNNnBccBDDCVvvcvVVvBSBNNBMNMBBBCDNxNn",
"glSDDvCCcbnnbvvcnCCbnBnMSSSNbBnvbbBDSCCvvcvVCvBBNBBDDSmSDDnNnCSn",
"gmSSDvnCvMnnvcvcnvMnBSnBBSBNbBbnbbnSSMAvvvvcvBSSNBDSDSnBSSNmBDCM",
"cMMSCCCvvvMvccvvcmcCSCNBSSBNBDbBvCBnBnccvVclnBBSBNDSBDNnSDBNBDBm",
"nnnvBvvvvvVvcvVvnbcMSBnSDBBBSDBBCAmMCBSCCvcvSBMMNBDSnMcvDSBlnSBB",
"MnccvvvcvvvvvvACBMCMSBnSDSBBDSNBSCMSCBBCBvcvSSBBBBZCNNcvBBnbBBBn",
"AvcccvcclvvVMvcnZSSBCBNnnBmBSBNBBSBDDMNNCnccSDSSSCSABvccvvvMCnSB",
"vAvvccCvcvcvvclbSSZCBSBSBMBSBDNNSSBBSSBMmmMSBBSnBBAAMvclcAvnNbnB",
"vVVvcvVvvvMvccccSBSBSDCSBBBSSSBbBSSMBSSSMnBDvcMmvvMvvvccvCvMBBmn",
"VVVccVvMgvAMgcvMSxNBSBMnBMNBSSSNNBSMNBDSMBMBvvlclbggcVVAMABSSBcB",
"vagv4f7g27f,,pwdMr68kedwDByhDs8xmtSBNBAa1fr1cVlrrwawufZv6jCm06tS",
"f2gV7wwf$7g,5jdtmdryk0krssyxxs<tsdmhxsjh>d5*aMd96w62wwjc6ihmr=6m",
"6;hAc5fp%0cqaSM0hSMnz0beO=sCts,&6Bf5y%aSrd0=>ht0ru=Xt7wl8r0ld=3k",
"272,f;$6aqi>&hhp8zrk10nd=0yzm51i0x>#-=aatr1>-8p6s88O&-1ptz9<1e-r",
">2$$7$X>85r<*060>81e>1yr-r00t>-r1r====5,601>=1r50<,*#*-85t<*-8>1",
"..##=**==#,0-=*X*-<5=-=>19>OO*====>11=##>11=#==&%XX%**======-11-",
".##=$#==***>=OO.=<>----11=*XO=<-*=15>>$#>-=*X######=*=-=-==*>>--",
"=$=$##*=*#*==**-->===--<-***==--*>65==##-==#X$$#$X#=*==>====>=*-",
"2>*.X*==*O*=*O*5>=*#*-$#OO=-->=*=10<=# #===*#=>$# #**=-1=##==**=",
"$#XXX=9-====O*1<==###*##*====5-o>1>==##$==*#=15#.X#**-<>=##***X#",
"#X.##,5==<1>=>1==*#X#=*=====11-O=-=**##=>>=*<51*X.X#*><=**XO*#X*",
"X.##>5=*=55>=1>#**##==->=**>9-O*o===X**->1>=15-.X.XX=1>**OOO*#**",
".#=#.%=-1<==**===**=>1,-**=5;%*XO*%*#==-1>=>1>*O***#==**OX*1**=>",
">>=XXX*=>-***===*#=<51>***=>=**OX=*=====-=->-=XX=-=#*O*=O*--*=15",
",>#. .**=***=--=#X-96-*OX*=*$#*X*->=*==*#*=-*OX#-<1**#**#*<=O-95",
">=. X#===***>-=#X*10<=*OO*#=$##**->=*=*=*O***O#*=>1<=#X#**===90>",
"#X.X#===*==->-*#*=>1-#O**===#..#==$#==**#X******==>-*##*=*->-><=",
"X ##*-===->>-**X*-*=*O*-====###=-=##==#$#X***=-=#=*####**=<<-**=",
".#,>>=###10>=*##***=->-><>*OX>6>->XO=**==*=-<1>#######..***=*==-",
"X=>--#*->11=**#***=-11><>-X*=>1>>=#**===**=>5>=..**#*..#-=***=-1",
"#>-**#=111=XXX=-X*=>51><-*O*>>-->***>&=*O*>16=##X==X###>==**==15",
"#*=*#$><>*XX*=5<**<6650<=*XO--===*=&:>=OO-9r1====11X..>1=X*O=<96",
"X#**#=-=*X#$-11>*-00115-*##$-===**>,:&*#O-65>-1-=55#.#==O**=>001",
"##**=-=#X#*->6<==>95;&=%XX#$==#***;,:=XX*>6>=>1-=51#X#.XX**=191-",
"O#XX.=##=**-->--==*++$+X++@==&$*&;:,@@++=:;=-1<*=<=#XX.#>-*X-**O",
"XX.X#***====---=#=>++@++=;22;&@%&>5:@+o++;&=->-*###X##&===***>=X",
"XXX*=#====*====*==>&++#=@:4:>&@+;14>@++++@;====#######>>##=*-1<=",
"XX*===1>=**=****=--+#%+&;6:;&%+&,03&$++#=&&@##*=$>=#=>*#*--==><>",
"##*=>--**==***O**=*X#X*=->>-=**>11>=*#.#=>==**==>>#..*##>>-==;11",
"**-<<-*#====**XX***#**========*<1<**X#=>>>-=#==>,>###.*=>>>==>1<",
"#=<91-*X=-=###X****=><=-====<-=>>=#XO*<05>=***-1r>#$=#==*=1<11-#",
"=115-**X*$#>=##**=->1=*===$>>-<-=*X*==10<--*#*>55$#=#*****>>->=#",
"151>=XX**$=<-#*$=->11**-=*=->=<=*XO*-=51===**-<6,$#$#*-**X==-===",
"r5>**X**==<<#==-1>>1**===*>=##=***XO==<>===*=<15=##..=**##=->=*=",
"<-=*O#===><=*=-<1,=-#*=-=***X##*****==-====*-<<<#..#X=-=*==*-**1",
"=-=O**===><*O=>15>=*#*==**OXX#**O*==$-===***-<>=#..#O-*-->--=*-1",
"=-*O*=====*OO-101>=X#*=#*#XX##*#*====-====*=<1-*#.#==*X*<61-OO<1",
"=*O*==->==OX=>65>=*X#***--##*===>-**#=**5>**-1=X.#.#**=-1>--*%%-",
"==#*-=->=#XX=>6>=*==###=1=##*=#=>>>##===6>===-##*#.#.*=-<=**%*O%",
"=>-**==##=*##1,#*$>>#.#>5-*#*OX#=15-#-=15=>-*X#=>-#.XX===*OO##**",
"=>=#===*#*=O#*$####$##$->*OXOX*=>1>==-,9<>>*XX#===#..=*=***=*X*=",
"=-*=>=**#==*##==####.#$==*****=->1====><=-**#X$===XX#=-*===-*O*=",
"=##-1=##X=====1>####..#$*X===*=->---==OX##X#*#>-==X#=====->>#*=-",
"-$#<-**=->=X*11########--=-<>-==-==**-=*#*X*-<6<===>==##=61=.=-=",
"*#=<=*=*=-*X=,=##$$###$>1>><<===*=**=-=**X*=>99>=====*=->6,*#==$",
"*#<>===*####=-*=>>$..#>>1<<<-===#**=--*OOO==11>==##*##>15>#*<-==",
"==*===-=**=>,=*=-$#..#**>99>===*=#O*=*#XX*===>-=**###-<<=*X*===O",
"**X=->==**=>-$#=->>$.==*>91>->-**XX*****=-=--=*====#=->=*O**==*O",
"*X.=-1X**#=*X*=#=59>==>-<<*>11-#X##=**==15><>=*O-<===>*XXO=---**",
"OX#=-#*=*X#*=*=*10,=#*==**=<<=*X#*>5=#=195r1-*XX=>*##*##*=6-****",
"****=*X**.X**=-=>1>#X****=--=XX**-11**106<91**XX=-###*#==,5-***=",
"===*=*X**##*=><>===#*X#**>>*#X*=->1=*=5r5->-#XO*===#**==>6>=#==-",
"<<###*.##XX#**==*=--XXX**#===*==-===#=->=*==-***-<,>-#=-0>#*#*>1",
"1>$.#**#XXX*=***=>><#O**=*-==#=====*=--***==-**=<11>=##=1=##*=<5"
};
