/* XPM */
static char *result[] = {
/* columns rows colors chars-per-pixel */
"64 64 213 2 ",
"   c #313558",
".  c #383857",
"X  c #2E3459",
"o  c #4F3C6E",
"O  c #413872",
"+  c #5E4654",
"@  c #624752",
"#  c #A34E34",
"$  c #BF5B38",
"%  c #C9632A",
"&  c #D56D3F",
"*  c #D76D36",
"=  c #EC7438",
"-  c #9B3B6A",
";  c #945848",
":  c #A14553",
">  c #A9544A",
",  c #B86543",
"<  c #7E3DF7",
"1  c #7F34F8",
"2  c #7D44F6",
"3  c #7C4AF6",
"4  c #754EF5",
"5  c #6D5AF2",
"6  c #7955F6",
"7  c #775FF6",
"8  c #7A5CF5",
"9  c #7977ED",
"0  c #7564F4",
"q  c #7A63F3",
"w  c #756CF4",
"e  c #7B6CF3",
"r  c #6B75F2",
"t  c #7474F4",
"y  c #727AF3",
"u  c #7A7AF5",
"i  c #7E71F6",
"p  c #6B6BF1",
"a  c #8E1BBF",
"s  c #8F2BA0",
"d  c #890EDD",
"f  c #8C11D3",
"g  c #8C20D6",
"h  c #840AEE",
"j  c #8418ED",
"k  c #8704F6",
"l  c #850AF5",
"z  c #8703F9",
"x  c #8802FA",
"c  c #870AFA",
"v  c #880CFA",
"b  c #8A08F3",
"n  c #8B1BF6",
"m  c #8613F9",
"M  c #8915FA",
"N  c #841DF8",
"B  c #8719F6",
"V  c #8733E8",
"C  c #8B24F4",
"Z  c #852CF6",
"A  c #8A2BF6",
"S  c #8225F8",
"D  c #822EF8",
"F  c #8625F7",
"G  c #8433F7",
"H  c #8932F4",
"J  c #843AF7",
"K  c #893BF6",
"L  c #8134F8",
"P  c #8636F9",
"I  c #8444F6",
"U  c #8945F4",
"Y  c #854CF4",
"T  c #8354F2",
"R  c #8A53F4",
"E  c #8756F7",
"W  c #877EEF",
"Q  c #8964F2",
"!  c #896AF4",
"~  c #8976F5",
"^  c #857AF4",
"/  c #8B69EE",
"(  c #5B8EEF",
")  c #5E9AEE",
"_  c #7982EE",
"`  c #7381EE",
"'  c #759CEE",
"]  c #7995EF",
"[  c #6789F1",
"{  c #6B84F2",
"}  c #7385F3",
"|  c #7F8AF0",
" . c #7885F6",
".. c #669BF1",
"X. c #7494F4",
"o. c #739AF2",
"O. c #7E9CF3",
"+. c #7994F7",
"@. c #5EAEEB",
"#. c #57A4EE",
"$. c #4CB5EB",
"%. c #5CB7EA",
"&. c #67ABEF",
"*. c #6EB9EE",
"=. c #71BCEE",
"-. c #79B6ED",
";. c #6BA8F2",
":. c #74ACF5",
">. c #75A3F5",
",. c #6CBBF2",
"<. c #68B5F1",
"1. c #74BEF5",
"2. c #7ABBF1",
"3. c #74B4F5",
"4. c #3FD3DD",
"5. c #2BDFE5",
"6. c #3DDDE6",
"7. c #3CDBEA",
"8. c #3DCAE8",
"9. c #2CEAE6",
"0. c #26E7E3",
"q. c #32E5E5",
"w. c #3EE5E4",
"e. c #34EAE6",
"r. c #3EE2E9",
"t. c #3FEAE8",
"y. c #38E8E8",
"u. c #7CC4DD",
"i. c #41E1DF",
"p. c #49C7EA",
"a. c #58C4EE",
"s. c #55CDED",
"d. c #5CCDED",
"f. c #5BC6E5",
"g. c #4CD4ED",
"h. c #44DAEB",
"j. c #4CDBEB",
"k. c #48D3E8",
"l. c #54D3EC",
"z. c #59D2ED",
"x. c #5CDBED",
"c. c #55D9EB",
"v. c #5DC7F0",
"b. c #5FD2F0",
"n. c #65C5EB",
"m. c #79C7EE",
"M. c #69D7EF",
"N. c #66DAEC",
"B. c #7EDBED",
"V. c #7BDAEE",
"C. c #65C6F2",
"Z. c #6CC2F4",
"A. c #63CBF2",
"S. c #72C1F4",
"D. c #7DC1F1",
"F. c #7ACAF4",
"G. c #77D3F3",
"H. c #41E1E9",
"J. c #4CE3EA",
"K. c #42EBE9",
"L. c #4BECEA",
"P. c #47EAE6",
"I. c #5AE6E6",
"U. c #55E3EB",
"Y. c #5CE3EC",
"T. c #54EDE9",
"R. c #5CECEB",
"E. c #5AEAE7",
"W. c #58F1EA",
"Q. c #6DE6E7",
"!. c #62E2EB",
"~. c #63EDEB",
"^. c #6AECEB",
"/. c #6DE6EA",
"(. c #76E4EC",
"). c #73ECED",
"_. c #7DEDED",
"`. c #7CE5EC",
"'. c #6CF2EC",
"]. c #64F3EB",
"[. c #73F2EC",
"{. c #7BF2EE",
"}. c #7FE4F0",
"|. c #7BF1F0",
" X c #8A8FEE",
".X c #879CEB",
"XX c #8983F3",
"oX c #848CF1",
"OX c #8688F3",
"+X c #8795F4",
"@X c #879DF2",
"#X c #899BF2",
"$X c #87B9EA",
"%X c #89A5F3",
"&X c #86A7F0",
"*X c #86B0F1",
"=X c #85BBF1",
"-X c #8AA5EA",
";X c #83CCED",
":X c #88C2E9",
">X c #82DFE8",
",X c #83CBF0",
"<X c #85C5F1",
"1X c #87D1F0",
"2X c #82EDE7",
"3X c #83E2ED",
"4X c #84ECED",
"5X c #89ECEC",
"6X c #87E9E6",
"7X c #85F0EE",
"8X c #86EFF0",
"9X c #83F1F0",
"0X c None",
/* pixels */
"0X0X0X0X0X0X0X0X0X0X0X0X0X0X0X0X0X0X0X0X0X0X0X0X0X0X0X0X0X0X0X0X0X0X0X0X0X0X0X0X0X0X0X0X0X0X0X0X0X0X0X0X0X0X0X0X0X0X0X0X0X0X0X0X",
"0X0X0X0X0X0X0X0X0X0X0X0X0X0X0X0X0X0X0X0X0X0X0X0X0X0X0X0X0X0X0X0X0X0X0X0X0X0X0X0X0X0X0X0X0X0X0X0X0X0X0X0X0X0X0X0X0X0X0X0X0X0X0X0X",
"0X0X0X0X0X0X0X0X0X0X0X0X0X0X0X0X0X0X0X0X0X0X0X0X0X0X0X0X0X0X0X0X0X0X0X0X0X0X0X0X0X0X0X0X0X0X0X0X0X0X0X0X0X0X0X0X0X0X0X0X0X0X0X0X",
"0X0X0X0X0X0X0X0X0X0X0X0X0X0X0X0X0X0X0X0X0X0X0X0X0X0X0X0X0X0X0X0X0X0X0X0X0X0X0X0X0X0X0X0X0X0X0X0X0X0X0X0X0X0X0X0X0X0X0X0X0X0X0X0X",
"0X0X0X0X0X0X0X0X0X0X0X0X0X0X0X0X0X0X0X0X0X0X0X0X0X0X0X0X0X0X0X0X0X0X0X0X0X0X0X0X0X0X0X0X0X0X0X0X0X0X0X0X0X0X0X0X0X0X0X0X0X0X0X0X",
"0X0X0X0X0X0X0X0X0X0X0X0X0X0X0X0X0X0X0X0X0X0X0X0X0X0X0X0X0X0X0X0X0X0X0X0X0X0X0X0X0X0X0X0X0X0X0X0X0X0X0X0X0X0X0X0X0X0X0X0X0X0X0X0X",
"0X0X0X0X0X0X0X0X0X0X0X0X0X0X0X0X0X0X0X0X0X0X0X0X0X0X0X0X0X0X0X0X0X0X0X0X0X0X0X0X0X0X0X0X0X0X0X0X0X0X0X0X0X0X0X0X0X0X0X0X0X0X0X0X",
"0X0X0X0X0X0X0X0X0X0X0X0X0X0X0X0X0X0X0X0X0X0X0X0X0X0X0X0X0X0X0X0X0X0X0X0X0X0X0X0X0X0X0X0X0X0X0X0X0X0X0X0X0X0X0X0X0X0X0X0X0X0X0X0X",
"0X0X0X0X0X0X0X0X0X0X0X0X0X0X0X0X0X0X0X0X0X0X0X0X0X0X0X0X0X0X0X0X0X0X0X0X0X0X0X0X0X0X0X0X0X0X0X0X0X0X0X0X0X0X0X0X0X0X0X0X0X0X0X0X",
"0X0X0X0X0X0X0X0X0X0X0X0X0X0X0X0X0X0X0X0X0X0X0X0X0X0X0X0X0X0X0X0X0X0X0X0X0X0X0X0X0X0X0X0X0X0X0X0X0X0X0X0X0X0X0X0X0X0X0X0X0X0X0X0X",
"0X0X0X0X0X0X0X0X0X0X0X0X0X0X0X0X0X0X0X0X0X0X0X0X0X0X0X0X0X0X0X0X0X0X0X0X0X0X0X0X0X0X0X0X0X0X0X0X0X0X0X0X0X0X0X0X0X0X0X0X0X0X0X0X",
"0X0X0X0X0X0X0X0X0X0X0X0X0X0X0X0X0X0X0X0X0X0X0X0X0X0X0X0X0X0X0X0X0X0X0X0X0X0X0X0X0X0X0X0X0X0X0X0X0X0X0X0X0X0X0X0X0X0X0X0X0X0X0X0X",
"0X0X0X0X0X0X0X0X0X0X0X0X0X0X0X0X0X0X0X0X0X0X0X0X0X0X0X0X0X0X0X0X0X0X0X0X0X0X0X0X0X0X0X0X0X0X0X0X0X0X0X0X0X0X0X0X0X0X0X0X0X0X0X0X",
"0X0X0X0X0X0X0X0X0X0X0X0X0X0X0X0X0X0X0X0X0X0X0X0X0X0X0X0X0X0X0X0X0X0X0X0X0X0X0X0X0X0X0X0X0X0X0X0X0X0X0X0X0X0X0X0X0X0X0X0X0X0X0X0X",
"0X0X0X0X0X0X0X0X0X0X0X0X0X0X0X0X0X0X0X0X0X0X0X0X0X0X0X0X0X0X0X0X0X0X0X0X0X0X0X0X0X0X0X0X0X0X0X0X0X0X0X0X0X0X0X0X0X0X0X0X0X0X0X0X",
"0X0X0X0X0X0X0X0X0X0X0X0X0X0X0X0X0X0X0X0X0X0X0X0X0X0X0X0X0X0X0X0X0X0X0X0X0X0X0X0X0X0X0X0X0X0X0X0X0X0X0X0X0X0X0X0X0X0X0X0X0X0X0X0X",
"0X0X0X0X0X0X0X0X0X0X0X0X0X0X0X0X0X0X0X0X0X0X0X0X0X0X0X0X0X0X7X4X0X0X0X0X0X0X0X0X0X0X0X0X0X0X0X0X0X0X0X0X0X0X0X0X0X0X0X0X0X0X0X0X",
"0X0X0X0X0X0X0X0X0X0X0X0X0X0X0X0X0X0X0X0X0X0X0X0X0X0X0X0X5X{.T.|.2X0X0X0X0X0X0X0X0X0X0X0X0X0X0X0X0X0X0X0X0X0X0X0X0X0X0X0X0X0X0X0X",
"0X0X0X0X0X0X0X0X0X0X0X0X0X0X0X0X0X0X0X0X0X0X0X0X0X0X0X0X8X~.R.7X8X5X0X0X0X0X0X0X0X0X0X0X0X0X0X0X0X0X0X0X0X0X0X0X0X0X0X0X0X0X0X0X",
"0X0X0X0X0X0X0X0X0X0X0X0X0X0X0X0X0X0X0X0X0X0X0X0X0X0X0X).L.e.{.~.R.|.5X0X0X0X0X0X0X0X0X0X0X0X0X0X0X0X0X0X0X0X0X0X0X0X0X0X0X0X0X0X",
"0X0X0X0X0X0X0X0X0X0X0X0X0X0X0X0X0X0X0X0X0X0X0X0X0XQ.P.h.h.T.^.r.h.Y.|.8X0X0X0X0X0X0X0X0X0X0X0X0X0X0X0X0X0X0X0X0X0X0X0X0X0X0X0X0X",
"0X0X0X0X0X0X0X0X0X0X0X0X0X0X0X0X0X0X0X0X0X0X0X0X9.j.v.;.a.'.U.A.1.A.U.[.9X0X0X0X0X0X0X0X0X0X0X0X0X0X0X0X0X0X0X0X0X0X0X0X0X0X0X0X",
"0X0X0X0X0X0X0X0X0X0X0X0X0X0X0X0X0X0X0X0X0X0X0X0X0.8.y ) l.'.Y.S.F.}.T.T.4X0X0X0X0X0X0X0X0X0X0X0X0X0X0X0X0X0X0X0X0X0X0X0X0X0X0X0X",
"0X0X0X0X0X0X0X0X0X0X0X0X0X0X0X0X0X0X0X0X0X0X0X0X0X0X%.s.'.7XV.z.S.F.G.!.0X0X0X0X0X0X0X0X0X0X0X0X0X0X0X0X0X0X0X0X0X0X0X0X0X0X0X0X",
"0X0X0X0X0X0X0X0X0X0X0X0X0X0X0X0X0X0X0X0X0X0X0X0X!.d.A./.9X%Xw 5.h.Z.1.Z.j.I.0X0X0X0X0X0X0X0X0X0X0X0X0X0X0X0X0X0X0X0X0X0X0X0X0X0X",
"0X0X0X0X0X0X0X0X0X0X0X0X0X0X0X0X0X0X0X0X0X0X0XT.9.j.U.(.@X6 4 ) K.H.g.Z.C.7.T.5X0X0X0X0X0X0X0X0X0X0X0X0X0X0X0X0X0X0X0X0X0X0X0X0X",
"0X0X0X0X0X0X0X0X0X0X0X0X0X0X0X0X0X0X0X0X0X0X2X^.L.[.`.W 7 [ w E 2.3.J.K.J.E.|.4X0X0X0X0X0X0X0X0X0X0X0X0X0X0X0X0X0X0X0X0X0X0X0X0X",
"0X0X0X0X0X0X0X0X0X0X0X0X0X0X0X0X0X0X0X0X0X0X0Xu.+XXXY L r p...6 m m Q OX.X3X0X0X0X0X0X0X0X0X0X0X0X0X0X0X0X0X0X0X0X0X0X0X0X0X0X0X",
"0X0X0X0X0X0X0X0X0X0X0X0X0X0X0X0X0X0X0X0X0X0X0Xp.+. .8 w $.d.1.+.L x t +.+.-.0X0X0X0X0X0X0X0X0X0X0X0X0X0X0X0X0X0X0X0X0X0X0X0X0X0X",
"0X0X0X0X0X0X0X0X0X0X0X0X0X0X0X0X0X0X0X0X0Xk.s.A.<.u y o.v.Z.1.,.r N p a.d.1.1.=.0X0X0X0X0X0X0X0X0X0X0X0X0X0X0X0X0X0X0X0X0X0X0X0X",
"0X0X0X0X0X0X0X0X0X0X0X0X0X0X0X0X0X0X5X~.e.g.C.x.Z.N ~ Y.A.1.Z.M.X.2 L 4 _ >XN.d.s.6.Q.0X0X0X0X0X0X0X0X0X0X0X0X0X0X0X0X0X0X0X0X0X",
"0X0X0X0X0X0X0X0X0X0X0X0X0X0X0X0X0X6X4X[.P.L.E.(.OXv ~ T.j.l.q.~.OX3 9 8 U .X:X~.L.9.K.4X0X0X0X0X0X0X0X0X0X0X0X0X0X0X0X0X0X0X0X0X",
"0X0X0X0X0X0X0X0X0X0X0X0X0X0X0X0X0X0X6X5X5X6X XQ C b / `.P.i.^.5XXX3 _ 9 q Y Y W ;XQ.'.6X0X0X0X0X0X0X0X0X0X0X0X0X0X0X0X0X0X0X0X0X",
"0X0X0X0X0X0X0X0X0X0X0X0X0X0X0X0X0X0X0X0X0X0X9 | R n C -X2X2X6X*XV U O.-.] 9 q _ -.:X0X0X0X0X0X0X0X0X0X0X0X0X0X0X0X0X0X0X0X0X0X0X",
"0X0X0X0X0X0X0X0X0X0X0X0X0X0X0X0X0X0X0X0X0Xn.2.2.O.A M U / / ! R M u D.2.*.@.T W D.=.S.d.0X0X0X0X0X0X0X0X0X0X0X0X0X0X0X0X0X0X0X0X",
"0X0X0X0X0X0X0X0X0X0X0X0X0X0X0X0X0X0X0X0XA.S.C.v.9 v x N S S N x x ( A.1.v.w.' K oXx.d.g.0.E.0X0X0X0X0X0X0X0X0X0X0X0X0X0X0X0X0X0X",
"0X0X0X0X0X0X0X0X0X0X0X0X0X0X0X0X0X_.P.h.Z.s.q.z.F N 3 0 y y w L z o.U.Z.Z.h.T.Q C =X!.L.K.[.5X0X0X0X0X0X0X0X0X0X0X0X0X0X0X0X0X0X",
"0X0X0X0X0X0X0X0X0X0X0X0X0X0X0X0X7X|.t.t.J.K.~.*XG q X.3.:.:. .t 1 ~ (.Y.A.h.L.1XK F Q `._.0X0X0X0X0X0X0X0X0X0X0X0X0X0X0X0X0X0X0X",
"0X0X0X0X0X0X0X0X0X0X0X0X0X0X0X0X4X9X7X_.4X_.@XP 3 } :.1.S.1.:.y 0 S Q B.L.9.W.9XU v e 0X0X0X0X0X0X0X0X0X0X0X0X0X0X0X0X0X0X0X0X0X",
"0X0X0X0X0X0X0X0X0X0X0X0X0X0X0X0X0X0X0X0X] X.e 8 { p.1.1.S.Z.p. .w 2 N R =XS.D.<XK F ,.1.1.z.0X0X0X0X0X0X0X0X0X0X0X0X0X0X0X0X0X0X",
"0X0X0X0X0X0X0X0X0X0X0X0X0X0X0X0X0X0X0X0X'  .y { $.7.,.1.S.z.R.@X2 y t 3 3 P M M x D b.A.S.Z.6.i.0X0X0X0X0X0X0X0X0X0X0X0X0X0X0X0X",
"0X0X0X0X0X0X0X0X0X0X0X0X0X0X0X0X0X0X0Xl.S.X.t 1.e.7.Z.Z.c.^.1XK < +.:.>. .w 6 1 m A F.~.J.j.K.~.8X0X0X0X0X0X0X0X0X0X0X0X0X0X0X0X",
"0X0X0X0X0X0X0X0X0X0X0X0X0X0X0X0X0X0Xz.S.C...I <X].9.6.x.[.8XXXx 1 >.1.1.:.+...{ w J U #Xm.{.{.4X0X0X0X0X0X0X0X0X0X0X0X0X0X0X0X0X",
"0X0X0X0X0X0X0X0X0X0X0X0X0X0X0X8X4XN.Z.C.r.#.G *X{.].].{.3X=XN x N 0 3.1.1.S.Z.p.<.;. .e 0X0X0X0X0X0X0X0X0X0X0X0X0X0X0X0X0X0X0X0X",
"0X0X0X0X0X0X0X0X0X0X0X0X0X0X8X|.x.l.z.!.{.^ z A +X%X%X%XY A 2 1 x m &.b.1.1.1.s.q.J.j.7.f.0X0X0X0X0X0X0X0X0X0X0X0X0X0X0X0X0X0X0X",
"0X0X0X0X0X0X0X0X0X0X0X0X0X0X2X[.R.W.^.7X=XI m m c x x x N i 3.3.5 m &X~.b.Z.Z.Z.7.^.W.t.Y.f.0X0X0X0X0X0X0X0X0X0X0X0X0X0X0X0X0X0X",
"0X0X0X0X0X0X0X0X0X0X0X0X0X0X0X0X7X5XB.*.O.>.<.@.N c m G #.Z.1.S.s.5 F #XD.).J.z.w.[.9X>XV.~.M.z.0X0X0X0X0X0X0X0X0X0X0X0X0X0X0X0X",
"0X0X0X0X0X0X0X0X0X0X0X0X0X0X0X0X0X0X4.C.1.d.R.m.Z 6 2 +XL.C.1.1.M.0 x L P @X3X^.R.7X,XR U ~ <XN.I.0X0X0X0X0X0X0X0X0X0X0X0X0X0X0X",
"0X0X0X0X0X0X0X0X0X0X0X0X0X0X0X0X0X).H.A.g.y.).E F t 2 +XT.d.C.z.^.Q c 0 0 8 I OX=X&XH x x x K 0X0X0X0X0X0X0X0X0X0X0X0X0X0X0X0X0X",
"0X0X0X0X0X0X0X0X0X0X0X0X0X0X0X0X0X9XR.T.T.^.@XM N 7 S E ;X~.W.~.=XP x < t y 6 S v v k l 0X0X0X0X0X0X0X0X0X0X0X0X0X0X0X0X0X0X0X0X",
"0X0X0X0X0X0X0X0X0X0X0X0X0X0X0X0X0X0X3X,X XK B k v m x x K *X1X.XV f b x D 0 0 S z x h 0X0X0X0X0X0X0X0X0X0X0X0X0X0X0X0X0X0X0X0X0X",
"0X0X0X0X0X0X0X0X0X0X0X0X0X0X0X0X0X0X0XV n k 0X0X0Xx x x x b n g - # s c x c v x k j 0X0X0X0X0X0X0X0X0X0X0X0X0X0X0X0X0X0X0X0X0X0X",
"0X0X0X0X0X0X0X0X0X0X0X0X0X0X0X0X0X0X0X0X0X0X0X0X0X0Xx l h d g : % * 0X0X0X0X0X0X0X0X0X0X0X0X0X0X0X0X0X0X0X0X0X0X0X0X0X0X0X0X0X0X",
"0X0X0X0X0X0X0X0X0X0X0X0X0X0X0X0X0X0X0X0X0X0X0X0X0X0XO O o > $ % = = ; 0X0X0X0X0X0X0X0X0X0X0X0X0X0X0X0X0X0X0X0X0X0X0X0X0X0X0X0X0X",
"0X0X0X0X0X0X0X0X0X0X0X0X0X0X0X0X0X0X0X                  . , & & & & @ X                   0X0X0X0X0X0X0X0X0X0X0X0X0X0X0X0X0X0X0X",
"0X0X0X0X0X0X0X0X0X0X0X0X0X0X0X0X0X0X0X0X0X            0X0X0X@ @ + + . X             0X0X0X0X0X0X0X0X0X0X0X0X0X0X0X0X0X0X0X0X0X0X",
"0X0X0X0X0X0X0X0X0X0X0X0X0X0X0X0X0X0X0X0X0X0X0X0X0X0X0X0X0X0X0X0X0X0X0X0X0X0X0X0X0X0X0X0X0X0X0X0X0X0X0X0X0X0X0X0X0X0X0X0X0X0X0X0X",
"0X0X0X0X0X0X0X0X0X0X0X0X0X0X0X0X0X0X0X0X0X0X0X0X0X0X0X0X0X0X0X0X0X0X0X0X0X0X0X0X0X0X0X0X0X0X0X0X0X0X0X0X0X0X0X0X0X0X0X0X0X0X0X0X",
"0X0X0X0X0X0X0X0X0X0X0X0X0X0X0X0X0X0X0X0X0X0X0X0X0X0X0X0X0X0X0X0X0X0X0X0X0X0X0X0X0X0X0X0X0X0X0X0X0X0X0X0X0X0X0X0X0X0X0X0X0X0X0X0X",
"0X0X0X0X0X0X0X0X0X0X0X0X0X0X0X0X0X0X0X0X0X0X0X0X0X0X0X0X0X0X0X0X0X0X0X0X0X0X0X0X0X0X0X0X0X0X0X0X0X0X0X0X0X0X0X0X0X0X0X0X0X0X0X0X",
"0X0X0X0X0X0X0X0X0X0X0X0X0X0X0X0X0X0X0X0X0X0X0X0X0X0X0X0X0X0X0X0X0X0X0X0X0X0X0X0X0X0X0X0X0X0X0X0X0X0X0X0X0X0X0X0X0X0X0X0X0X0X0X0X",
"0X0X0X0X0X0X0X0X0X0X0X0X0X0X0X0X0X0X0X0X0X0X0X0X0X0X0X0X0X0X0X0X0X0X0X0X0X0X0X0X0X0X0X0X0X0X0X0X0X0X0X0X0X0X0X0X0X0X0X0X0X0X0X0X",
"0X0X0X0X0X0X0X0X0X0X0X0X0X0X0X0X0X0X0X0X0X0X0X0X0X0X0X0X0X0X0X0X0X0X0X0X0X0X0X0X0X0X0X0X0X0X0X0X0X0X0X0X0X0X0X0X0X0X0X0X0X0X0X0X",
"0X0X0X0X0X0X0X0X0X0X0X0X0X0X0X0X0X0X0X0X0X0X0X0X0X0X0X0X0X0X0X0X0X0X0X0X0X0X0X0X0X0X0X0X0X0X0X0X0X0X0X0X0X0X0X0X0X0X0X0X0X0X0X0X"
};
